G04 #@! TF.GenerationSoftware,KiCad,Pcbnew,(5.1.8)-1*
G04 #@! TF.CreationDate,2021-03-23T12:55:02+03:00*
G04 #@! TF.ProjectId,uart_key,75617274-5f6b-4657-992e-6b696361645f,rev?*
G04 #@! TF.SameCoordinates,Original*
G04 #@! TF.FileFunction,Legend,Bot*
G04 #@! TF.FilePolarity,Positive*
%FSLAX46Y46*%
G04 Gerber Fmt 4.6, Leading zero omitted, Abs format (unit mm)*
G04 Created by KiCad (PCBNEW (5.1.8)-1) date 2021-03-23 12:55:02*
%MOMM*%
%LPD*%
G01*
G04 APERTURE LIST*
%ADD10C,0.700000*%
%ADD11C,4.400000*%
%ADD12O,1.700000X1.700000*%
%ADD13R,1.700000X1.700000*%
%ADD14O,1.700000X1.950000*%
%ADD15C,1.300000*%
%ADD16O,1.950000X1.700000*%
G04 APERTURE END LIST*
%LPC*%
D10*
X23166726Y-70833274D03*
X22000000Y-70350000D03*
X20833274Y-70833274D03*
X20350000Y-72000000D03*
X20833274Y-73166726D03*
X22000000Y-73650000D03*
X23166726Y-73166726D03*
X23650000Y-72000000D03*
D11*
X22000000Y-72000000D03*
D10*
X65166726Y-70833274D03*
X64000000Y-70350000D03*
X62833274Y-70833274D03*
X62350000Y-72000000D03*
X62833274Y-73166726D03*
X64000000Y-73650000D03*
X65166726Y-73166726D03*
X65650000Y-72000000D03*
D11*
X64000000Y-72000000D03*
D10*
X23166726Y-18833274D03*
X22000000Y-18350000D03*
X20833274Y-18833274D03*
X20350000Y-20000000D03*
X20833274Y-21166726D03*
X22000000Y-21650000D03*
X23166726Y-21166726D03*
X23650000Y-20000000D03*
D11*
X22000000Y-20000000D03*
D10*
X65166726Y-18833274D03*
X64000000Y-18350000D03*
X62833274Y-18833274D03*
X62350000Y-20000000D03*
X62833274Y-21166726D03*
X64000000Y-21650000D03*
X65166726Y-21166726D03*
X65650000Y-20000000D03*
D11*
X64000000Y-20000000D03*
D12*
X59170000Y-58790000D03*
D13*
X56630000Y-58790000D03*
D14*
X26190000Y-65140000D03*
X28690000Y-65140000D03*
G36*
G01*
X32040000Y-64415000D02*
X32040000Y-65865000D01*
G75*
G02*
X31790000Y-66115000I-250000J0D01*
G01*
X30590000Y-66115000D01*
G75*
G02*
X30340000Y-65865000I0J250000D01*
G01*
X30340000Y-64415000D01*
G75*
G02*
X30590000Y-64165000I250000J0D01*
G01*
X31790000Y-64165000D01*
G75*
G02*
X32040000Y-64415000I0J-250000D01*
G01*
G37*
D15*
X48010000Y-57822000D03*
X49510000Y-57822000D03*
X51010000Y-57822000D03*
X52510000Y-57822000D03*
D14*
X52185000Y-29580000D03*
X54685000Y-29580000D03*
G36*
G01*
X58035000Y-28855000D02*
X58035000Y-30305000D01*
G75*
G02*
X57785000Y-30555000I-250000J0D01*
G01*
X56585000Y-30555000D01*
G75*
G02*
X56335000Y-30305000I0J250000D01*
G01*
X56335000Y-28855000D01*
G75*
G02*
X56585000Y-28605000I250000J0D01*
G01*
X57785000Y-28605000D01*
G75*
G02*
X58035000Y-28855000I0J-250000D01*
G01*
G37*
X31150000Y-27675000D03*
X28650000Y-27675000D03*
G36*
G01*
X25300000Y-28400000D02*
X25300000Y-26950000D01*
G75*
G02*
X25550000Y-26700000I250000J0D01*
G01*
X26750000Y-26700000D01*
G75*
G02*
X27000000Y-26950000I0J-250000D01*
G01*
X27000000Y-28400000D01*
G75*
G02*
X26750000Y-28650000I-250000J0D01*
G01*
X25550000Y-28650000D01*
G75*
G02*
X25300000Y-28400000I0J250000D01*
G01*
G37*
D16*
X39485000Y-58830000D03*
X39485000Y-61330000D03*
X39485000Y-63830000D03*
G36*
G01*
X40210000Y-67180000D02*
X38760000Y-67180000D01*
G75*
G02*
X38510000Y-66930000I0J250000D01*
G01*
X38510000Y-65730000D01*
G75*
G02*
X38760000Y-65480000I250000J0D01*
G01*
X40210000Y-65480000D01*
G75*
G02*
X40460000Y-65730000I0J-250000D01*
G01*
X40460000Y-66930000D01*
G75*
G02*
X40210000Y-67180000I-250000J0D01*
G01*
G37*
M02*
