M48
METRIC
T1C0.400
T2C0.762
T3C0.950
T4C1.000
T5C2.200
%
G90
G05
T1
X31.15Y43.47
X31.15Y43.47
X32.42Y43.47
X32.42Y43.47
X33.69Y43.47
X33.69Y43.47
X35.936Y46.267
X36.945Y35.295
X38.088Y41.645
X39.897Y35.625
X39.935Y45.344
X40.444Y51.839
X41.39Y49.138
X42.406Y62.092
X43.295Y41.425
X43.3Y43.291
X44.254Y51.839
X44.438Y60.822
X44.692Y44.566
X46.216Y67.28
X46.481Y64.875
X47.187Y62.914
X47.232Y65.61
X49.01Y50.662
X49.01Y55.234
X50.28Y49.9
X50.28Y63.725
X50.856Y56.054
X51.296Y62.114
X53.074Y65.394
X59.424Y49.138
X60.229Y27.758
X60.331Y23.788
X62.35Y20.0
X62.833Y18.833
X62.833Y21.167
X64.0Y18.35
X64.0Y21.65
X65.167Y18.833
X65.167Y21.167
X65.65Y20.0
X62.35Y72.0
X62.833Y70.833
X62.833Y73.167
X64.0Y70.35
X64.0Y73.65
X65.167Y70.833
X65.167Y73.167
X65.65Y72.0
X20.35Y20.0
X20.833Y18.833
X20.833Y21.167
X22.0Y18.35
X22.0Y21.65
X23.167Y18.833
X23.167Y21.167
X23.65Y20.0
X20.35Y72.0
X20.833Y70.833
X20.833Y73.167
X22.0Y70.35
X22.0Y73.65
X23.167Y70.833
X23.167Y73.167
X23.65Y72.0
T2
X48.01Y57.822
X49.51Y57.822
X51.01Y57.822
X52.51Y57.822
T3
X26.15Y27.675
X28.65Y27.675
X31.15Y27.675
X52.185Y29.58
X54.685Y29.58
X57.185Y29.58
X26.19Y65.14
X28.69Y65.14
X31.19Y65.14
X39.485Y58.83
X39.485Y61.33
X39.485Y63.83
X39.485Y66.33
T4
X56.63Y58.79
X59.17Y58.79
T5
X22.0Y20.0
X22.0Y72.0
X64.0Y20.0
X64.0Y72.0
T0
M30
