G04 #@! TF.GenerationSoftware,KiCad,Pcbnew,(5.1.8)-1*
G04 #@! TF.CreationDate,2021-03-23T12:55:02+03:00*
G04 #@! TF.ProjectId,uart_key,75617274-5f6b-4657-992e-6b696361645f,rev?*
G04 #@! TF.SameCoordinates,Original*
G04 #@! TF.FileFunction,Legend,Top*
G04 #@! TF.FilePolarity,Positive*
%FSLAX46Y46*%
G04 Gerber Fmt 4.6, Leading zero omitted, Abs format (unit mm)*
G04 Created by KiCad (PCBNEW (5.1.8)-1) date 2021-03-23 12:55:02*
%MOMM*%
%LPD*%
G01*
G04 APERTURE LIST*
%ADD10C,0.150000*%
%ADD11C,0.300000*%
%ADD12C,0.120000*%
%ADD13C,0.700000*%
%ADD14C,4.400000*%
%ADD15R,10.800000X9.400000*%
%ADD16R,1.100000X4.600000*%
%ADD17R,2.000000X1.780000*%
%ADD18R,0.900000X0.800000*%
%ADD19R,1.060000X0.650000*%
%ADD20R,1.500000X4.600000*%
%ADD21R,9.000000X3.000000*%
%ADD22O,1.700000X1.700000*%
%ADD23R,1.700000X1.700000*%
%ADD24O,1.700000X1.950000*%
%ADD25C,1.300000*%
%ADD26O,1.950000X1.700000*%
%ADD27R,1.800000X2.500000*%
G04 APERTURE END LIST*
D10*
X61481666Y-59201666D02*
X61615000Y-59201666D01*
X61681666Y-59168333D01*
X61715000Y-59135000D01*
X61781666Y-59035000D01*
X61815000Y-58901666D01*
X61815000Y-58635000D01*
X61781666Y-58568333D01*
X61748333Y-58535000D01*
X61681666Y-58501666D01*
X61548333Y-58501666D01*
X61481666Y-58535000D01*
X61448333Y-58568333D01*
X61415000Y-58635000D01*
X61415000Y-58801666D01*
X61448333Y-58868333D01*
X61481666Y-58901666D01*
X61548333Y-58935000D01*
X61681666Y-58935000D01*
X61748333Y-58901666D01*
X61781666Y-58868333D01*
X61815000Y-58801666D01*
X62415000Y-58501666D02*
X62281666Y-58501666D01*
X62215000Y-58535000D01*
X62181666Y-58568333D01*
X62115000Y-58668333D01*
X62081666Y-58801666D01*
X62081666Y-59068333D01*
X62115000Y-59135000D01*
X62148333Y-59168333D01*
X62215000Y-59201666D01*
X62348333Y-59201666D01*
X62415000Y-59168333D01*
X62448333Y-59135000D01*
X62481666Y-59068333D01*
X62481666Y-58901666D01*
X62448333Y-58835000D01*
X62415000Y-58801666D01*
X62348333Y-58768333D01*
X62215000Y-58768333D01*
X62148333Y-58801666D01*
X62115000Y-58835000D01*
X62081666Y-58901666D01*
X62915000Y-58501666D02*
X62981666Y-58501666D01*
X63048333Y-58535000D01*
X63081666Y-58568333D01*
X63115000Y-58635000D01*
X63148333Y-58768333D01*
X63148333Y-58935000D01*
X63115000Y-59068333D01*
X63081666Y-59135000D01*
X63048333Y-59168333D01*
X62981666Y-59201666D01*
X62915000Y-59201666D01*
X62848333Y-59168333D01*
X62815000Y-59135000D01*
X62781666Y-59068333D01*
X62748333Y-58935000D01*
X62748333Y-58768333D01*
X62781666Y-58635000D01*
X62815000Y-58568333D01*
X62848333Y-58535000D01*
X62915000Y-58501666D01*
X63581666Y-58501666D02*
X63648333Y-58501666D01*
X63715000Y-58535000D01*
X63748333Y-58568333D01*
X63781666Y-58635000D01*
X63815000Y-58768333D01*
X63815000Y-58935000D01*
X63781666Y-59068333D01*
X63748333Y-59135000D01*
X63715000Y-59168333D01*
X63648333Y-59201666D01*
X63581666Y-59201666D01*
X63515000Y-59168333D01*
X63481666Y-59135000D01*
X63448333Y-59068333D01*
X63415000Y-58935000D01*
X63415000Y-58768333D01*
X63448333Y-58635000D01*
X63481666Y-58568333D01*
X63515000Y-58535000D01*
X63581666Y-58501666D01*
X59516666Y-71850000D02*
X59516666Y-72416666D01*
X59483333Y-72483333D01*
X59450000Y-72516666D01*
X59383333Y-72550000D01*
X59283333Y-72550000D01*
X59216666Y-72516666D01*
X59516666Y-72283333D02*
X59450000Y-72316666D01*
X59316666Y-72316666D01*
X59250000Y-72283333D01*
X59216666Y-72250000D01*
X59183333Y-72183333D01*
X59183333Y-71983333D01*
X59216666Y-71916666D01*
X59250000Y-71883333D01*
X59316666Y-71850000D01*
X59450000Y-71850000D01*
X59516666Y-71883333D01*
X59850000Y-71850000D02*
X59850000Y-72316666D01*
X59850000Y-71916666D02*
X59883333Y-71883333D01*
X59950000Y-71850000D01*
X60050000Y-71850000D01*
X60116666Y-71883333D01*
X60150000Y-71950000D01*
X60150000Y-72316666D01*
X60783333Y-72316666D02*
X60783333Y-71616666D01*
X60783333Y-72283333D02*
X60716666Y-72316666D01*
X60583333Y-72316666D01*
X60516666Y-72283333D01*
X60483333Y-72250000D01*
X60450000Y-72183333D01*
X60450000Y-71983333D01*
X60483333Y-71916666D01*
X60516666Y-71883333D01*
X60583333Y-71850000D01*
X60716666Y-71850000D01*
X60783333Y-71883333D01*
X25516666Y-71850000D02*
X25516666Y-72416666D01*
X25483333Y-72483333D01*
X25450000Y-72516666D01*
X25383333Y-72550000D01*
X25283333Y-72550000D01*
X25216666Y-72516666D01*
X25516666Y-72283333D02*
X25450000Y-72316666D01*
X25316666Y-72316666D01*
X25250000Y-72283333D01*
X25216666Y-72250000D01*
X25183333Y-72183333D01*
X25183333Y-71983333D01*
X25216666Y-71916666D01*
X25250000Y-71883333D01*
X25316666Y-71850000D01*
X25450000Y-71850000D01*
X25516666Y-71883333D01*
X25850000Y-71850000D02*
X25850000Y-72316666D01*
X25850000Y-71916666D02*
X25883333Y-71883333D01*
X25950000Y-71850000D01*
X26050000Y-71850000D01*
X26116666Y-71883333D01*
X26150000Y-71950000D01*
X26150000Y-72316666D01*
X26783333Y-72316666D02*
X26783333Y-71616666D01*
X26783333Y-72283333D02*
X26716666Y-72316666D01*
X26583333Y-72316666D01*
X26516666Y-72283333D01*
X26483333Y-72250000D01*
X26450000Y-72183333D01*
X26450000Y-71983333D01*
X26483333Y-71916666D01*
X26516666Y-71883333D01*
X26583333Y-71850000D01*
X26716666Y-71850000D01*
X26783333Y-71883333D01*
X25050000Y-18850000D02*
X25050000Y-19550000D01*
X25050000Y-18883333D02*
X25116666Y-18850000D01*
X25250000Y-18850000D01*
X25316666Y-18883333D01*
X25350000Y-18916666D01*
X25383333Y-18983333D01*
X25383333Y-19183333D01*
X25350000Y-19250000D01*
X25316666Y-19283333D01*
X25250000Y-19316666D01*
X25116666Y-19316666D01*
X25050000Y-19283333D01*
X25616666Y-18850000D02*
X25750000Y-19316666D01*
X25883333Y-18983333D01*
X26016666Y-19316666D01*
X26150000Y-18850000D01*
X26416666Y-19316666D02*
X26416666Y-18850000D01*
X26416666Y-18983333D02*
X26450000Y-18916666D01*
X26483333Y-18883333D01*
X26550000Y-18850000D01*
X26616666Y-18850000D01*
X26683333Y-19383333D02*
X27216666Y-19383333D01*
X27683333Y-18850000D02*
X27683333Y-19416666D01*
X27650000Y-19483333D01*
X27616666Y-19516666D01*
X27550000Y-19550000D01*
X27450000Y-19550000D01*
X27383333Y-19516666D01*
X27683333Y-19283333D02*
X27616666Y-19316666D01*
X27483333Y-19316666D01*
X27416666Y-19283333D01*
X27383333Y-19250000D01*
X27350000Y-19183333D01*
X27350000Y-18983333D01*
X27383333Y-18916666D01*
X27416666Y-18883333D01*
X27483333Y-18850000D01*
X27616666Y-18850000D01*
X27683333Y-18883333D01*
X28016666Y-18850000D02*
X28016666Y-19316666D01*
X28016666Y-18916666D02*
X28050000Y-18883333D01*
X28116666Y-18850000D01*
X28216666Y-18850000D01*
X28283333Y-18883333D01*
X28316666Y-18950000D01*
X28316666Y-19316666D01*
X28949999Y-19316666D02*
X28949999Y-18616666D01*
X28949999Y-19283333D02*
X28883333Y-19316666D01*
X28749999Y-19316666D01*
X28683333Y-19283333D01*
X28649999Y-19250000D01*
X28616666Y-19183333D01*
X28616666Y-18983333D01*
X28649999Y-18916666D01*
X28683333Y-18883333D01*
X28749999Y-18850000D01*
X28883333Y-18850000D01*
X28949999Y-18883333D01*
X57050000Y-18850000D02*
X57050000Y-19550000D01*
X57050000Y-18883333D02*
X57116666Y-18850000D01*
X57250000Y-18850000D01*
X57316666Y-18883333D01*
X57350000Y-18916666D01*
X57383333Y-18983333D01*
X57383333Y-19183333D01*
X57350000Y-19250000D01*
X57316666Y-19283333D01*
X57250000Y-19316666D01*
X57116666Y-19316666D01*
X57050000Y-19283333D01*
X57616666Y-18850000D02*
X57750000Y-19316666D01*
X57883333Y-18983333D01*
X58016666Y-19316666D01*
X58150000Y-18850000D01*
X58416666Y-19316666D02*
X58416666Y-18850000D01*
X58416666Y-18983333D02*
X58450000Y-18916666D01*
X58483333Y-18883333D01*
X58550000Y-18850000D01*
X58616666Y-18850000D01*
X58683333Y-19383333D02*
X59216666Y-19383333D01*
X59683333Y-18850000D02*
X59683333Y-19416666D01*
X59650000Y-19483333D01*
X59616666Y-19516666D01*
X59550000Y-19550000D01*
X59450000Y-19550000D01*
X59383333Y-19516666D01*
X59683333Y-19283333D02*
X59616666Y-19316666D01*
X59483333Y-19316666D01*
X59416666Y-19283333D01*
X59383333Y-19250000D01*
X59350000Y-19183333D01*
X59350000Y-18983333D01*
X59383333Y-18916666D01*
X59416666Y-18883333D01*
X59483333Y-18850000D01*
X59616666Y-18850000D01*
X59683333Y-18883333D01*
X60016666Y-18850000D02*
X60016666Y-19316666D01*
X60016666Y-18916666D02*
X60050000Y-18883333D01*
X60116666Y-18850000D01*
X60216666Y-18850000D01*
X60283333Y-18883333D01*
X60316666Y-18950000D01*
X60316666Y-19316666D01*
X60950000Y-19316666D02*
X60950000Y-18616666D01*
X60950000Y-19283333D02*
X60883333Y-19316666D01*
X60750000Y-19316666D01*
X60683333Y-19283333D01*
X60650000Y-19250000D01*
X60616666Y-19183333D01*
X60616666Y-18983333D01*
X60650000Y-18916666D01*
X60683333Y-18883333D01*
X60750000Y-18850000D01*
X60883333Y-18850000D01*
X60950000Y-18883333D01*
X40100000Y-16850000D02*
X40100000Y-17316666D01*
X39800000Y-16850000D02*
X39800000Y-17216666D01*
X39833333Y-17283333D01*
X39900000Y-17316666D01*
X40000000Y-17316666D01*
X40066666Y-17283333D01*
X40100000Y-17250000D01*
X40733333Y-17316666D02*
X40733333Y-16950000D01*
X40700000Y-16883333D01*
X40633333Y-16850000D01*
X40500000Y-16850000D01*
X40433333Y-16883333D01*
X40733333Y-17283333D02*
X40666666Y-17316666D01*
X40500000Y-17316666D01*
X40433333Y-17283333D01*
X40400000Y-17216666D01*
X40400000Y-17150000D01*
X40433333Y-17083333D01*
X40500000Y-17050000D01*
X40666666Y-17050000D01*
X40733333Y-17016666D01*
X41066666Y-17316666D02*
X41066666Y-16850000D01*
X41066666Y-16983333D02*
X41100000Y-16916666D01*
X41133333Y-16883333D01*
X41200000Y-16850000D01*
X41266666Y-16850000D01*
X41400000Y-16850000D02*
X41666666Y-16850000D01*
X41500000Y-16616666D02*
X41500000Y-17216666D01*
X41533333Y-17283333D01*
X41600000Y-17316666D01*
X41666666Y-17316666D01*
X41733333Y-17383333D02*
X42266666Y-17383333D01*
X42433333Y-17316666D02*
X42433333Y-16616666D01*
X42500000Y-17050000D02*
X42700000Y-17316666D01*
X42700000Y-16850000D02*
X42433333Y-17116666D01*
X43266666Y-17283333D02*
X43200000Y-17316666D01*
X43066666Y-17316666D01*
X43000000Y-17283333D01*
X42966666Y-17216666D01*
X42966666Y-16950000D01*
X43000000Y-16883333D01*
X43066666Y-16850000D01*
X43200000Y-16850000D01*
X43266666Y-16883333D01*
X43300000Y-16950000D01*
X43300000Y-17016666D01*
X42966666Y-17083333D01*
X43533333Y-16850000D02*
X43700000Y-17316666D01*
X43866666Y-16850000D02*
X43700000Y-17316666D01*
X43633333Y-17483333D01*
X43600000Y-17516666D01*
X43533333Y-17550000D01*
X43966666Y-17383333D02*
X44500000Y-17383333D01*
X44633333Y-16683333D02*
X44666666Y-16650000D01*
X44733333Y-16616666D01*
X44900000Y-16616666D01*
X44966666Y-16650000D01*
X45000000Y-16683333D01*
X45033333Y-16750000D01*
X45033333Y-16816666D01*
X45000000Y-16916666D01*
X44600000Y-17316666D01*
X45033333Y-17316666D01*
X45266666Y-16850000D02*
X45433333Y-17316666D01*
X45600000Y-16850000D01*
X45800000Y-16616666D02*
X46233333Y-16616666D01*
X46000000Y-16883333D01*
X46100000Y-16883333D01*
X46166666Y-16916666D01*
X46200000Y-16950000D01*
X46233333Y-17016666D01*
X46233333Y-17183333D01*
X46200000Y-17250000D01*
X46166666Y-17283333D01*
X46100000Y-17316666D01*
X45900000Y-17316666D01*
X45833333Y-17283333D01*
X45800000Y-17250000D01*
X32874666Y-60472000D02*
X32808000Y-60438666D01*
X32708000Y-60438666D01*
X32608000Y-60472000D01*
X32541333Y-60538666D01*
X32508000Y-60605333D01*
X32474666Y-60738666D01*
X32474666Y-60838666D01*
X32508000Y-60972000D01*
X32541333Y-61038666D01*
X32608000Y-61105333D01*
X32708000Y-61138666D01*
X32774666Y-61138666D01*
X32874666Y-61105333D01*
X32908000Y-61072000D01*
X32908000Y-60838666D01*
X32774666Y-60838666D01*
X33308000Y-61138666D02*
X33241333Y-61105333D01*
X33208000Y-61072000D01*
X33174666Y-61005333D01*
X33174666Y-60805333D01*
X33208000Y-60738666D01*
X33241333Y-60705333D01*
X33308000Y-60672000D01*
X33408000Y-60672000D01*
X33474666Y-60705333D01*
X33508000Y-60738666D01*
X33541333Y-60805333D01*
X33541333Y-61005333D01*
X33508000Y-61072000D01*
X33474666Y-61105333D01*
X33408000Y-61138666D01*
X33308000Y-61138666D01*
X27202666Y-61126000D02*
X27736000Y-61126000D01*
X27469333Y-61392666D02*
X27469333Y-60859333D01*
X28369333Y-60926000D02*
X28369333Y-61392666D01*
X28202666Y-60659333D02*
X28036000Y-61159333D01*
X28469333Y-61159333D01*
X28702666Y-60759333D02*
X28736000Y-60726000D01*
X28802666Y-60692666D01*
X28969333Y-60692666D01*
X29036000Y-60726000D01*
X29069333Y-60759333D01*
X29102666Y-60826000D01*
X29102666Y-60892666D01*
X29069333Y-60992666D01*
X28669333Y-61392666D01*
X29102666Y-61392666D01*
X29302666Y-60692666D02*
X29536000Y-61392666D01*
X29769333Y-60692666D01*
X55650666Y-25312000D02*
X56184000Y-25312000D01*
X55917333Y-25578666D02*
X55917333Y-25045333D01*
X56884000Y-25578666D02*
X56484000Y-25578666D01*
X56684000Y-25578666D02*
X56684000Y-24878666D01*
X56617333Y-24978666D01*
X56550666Y-25045333D01*
X56484000Y-25078666D01*
X57150666Y-24945333D02*
X57184000Y-24912000D01*
X57250666Y-24878666D01*
X57417333Y-24878666D01*
X57484000Y-24912000D01*
X57517333Y-24945333D01*
X57550666Y-25012000D01*
X57550666Y-25078666D01*
X57517333Y-25178666D01*
X57117333Y-25578666D01*
X57550666Y-25578666D01*
X57750666Y-24878666D02*
X57984000Y-25578666D01*
X58217333Y-24878666D01*
X52241333Y-24912000D02*
X52174666Y-24878666D01*
X52074666Y-24878666D01*
X51974666Y-24912000D01*
X51908000Y-24978666D01*
X51874666Y-25045333D01*
X51841333Y-25178666D01*
X51841333Y-25278666D01*
X51874666Y-25412000D01*
X51908000Y-25478666D01*
X51974666Y-25545333D01*
X52074666Y-25578666D01*
X52141333Y-25578666D01*
X52241333Y-25545333D01*
X52274666Y-25512000D01*
X52274666Y-25278666D01*
X52141333Y-25278666D01*
X31159333Y-22626000D02*
X31092666Y-22592666D01*
X30992666Y-22592666D01*
X30892666Y-22626000D01*
X30826000Y-22692666D01*
X30792666Y-22759333D01*
X30759333Y-22892666D01*
X30759333Y-22992666D01*
X30792666Y-23126000D01*
X30826000Y-23192666D01*
X30892666Y-23259333D01*
X30992666Y-23292666D01*
X31059333Y-23292666D01*
X31159333Y-23259333D01*
X31192666Y-23226000D01*
X31192666Y-22992666D01*
X31059333Y-22992666D01*
X27202666Y-23026000D02*
X27736000Y-23026000D01*
X27469333Y-23292666D02*
X27469333Y-22759333D01*
X28369333Y-22826000D02*
X28369333Y-23292666D01*
X28202666Y-22559333D02*
X28036000Y-23059333D01*
X28469333Y-23059333D01*
X28702666Y-22659333D02*
X28736000Y-22626000D01*
X28802666Y-22592666D01*
X28969333Y-22592666D01*
X29036000Y-22626000D01*
X29069333Y-22659333D01*
X29102666Y-22726000D01*
X29102666Y-22792666D01*
X29069333Y-22892666D01*
X28669333Y-23292666D01*
X29102666Y-23292666D01*
X29302666Y-22592666D02*
X29536000Y-23292666D01*
X29769333Y-22592666D01*
X34499833Y-66460000D02*
X35033166Y-66460000D01*
X34766500Y-66726666D02*
X34766500Y-66193333D01*
X35699833Y-66026666D02*
X35366500Y-66026666D01*
X35333166Y-66360000D01*
X35366500Y-66326666D01*
X35433166Y-66293333D01*
X35599833Y-66293333D01*
X35666500Y-66326666D01*
X35699833Y-66360000D01*
X35733166Y-66426666D01*
X35733166Y-66593333D01*
X35699833Y-66660000D01*
X35666500Y-66693333D01*
X35599833Y-66726666D01*
X35433166Y-66726666D01*
X35366500Y-66693333D01*
X35333166Y-66660000D01*
X35933166Y-66026666D02*
X36166500Y-66726666D01*
X36399833Y-66026666D01*
X34899833Y-64186666D02*
X34666500Y-63853333D01*
X34499833Y-64186666D02*
X34499833Y-63486666D01*
X34766500Y-63486666D01*
X34833166Y-63520000D01*
X34866500Y-63553333D01*
X34899833Y-63620000D01*
X34899833Y-63720000D01*
X34866500Y-63786666D01*
X34833166Y-63820000D01*
X34766500Y-63853333D01*
X34499833Y-63853333D01*
X35133166Y-64186666D02*
X35499833Y-63720000D01*
X35133166Y-63720000D02*
X35499833Y-64186666D01*
X35766500Y-63720000D02*
X36299833Y-63920000D01*
X35766500Y-64120000D01*
X34566500Y-60946666D02*
X34966500Y-60946666D01*
X34766500Y-61646666D02*
X34766500Y-60946666D01*
X35133166Y-61646666D02*
X35499833Y-61180000D01*
X35133166Y-61180000D02*
X35499833Y-61646666D01*
X36299833Y-61180000D02*
X35766500Y-61380000D01*
X36299833Y-61580000D01*
X35033166Y-58440000D02*
X34966500Y-58406666D01*
X34866500Y-58406666D01*
X34766500Y-58440000D01*
X34699833Y-58506666D01*
X34666500Y-58573333D01*
X34633166Y-58706666D01*
X34633166Y-58806666D01*
X34666500Y-58940000D01*
X34699833Y-59006666D01*
X34766500Y-59073333D01*
X34866500Y-59106666D01*
X34933166Y-59106666D01*
X35033166Y-59073333D01*
X35066500Y-59040000D01*
X35066500Y-58806666D01*
X34933166Y-58806666D01*
X35366500Y-58640000D02*
X35366500Y-59106666D01*
X35366500Y-58706666D02*
X35399833Y-58673333D01*
X35466500Y-58640000D01*
X35566500Y-58640000D01*
X35633166Y-58673333D01*
X35666500Y-58740000D01*
X35666500Y-59106666D01*
X36299833Y-59106666D02*
X36299833Y-58406666D01*
X36299833Y-59073333D02*
X36233166Y-59106666D01*
X36099833Y-59106666D01*
X36033166Y-59073333D01*
X35999833Y-59040000D01*
X35966500Y-58973333D01*
X35966500Y-58773333D01*
X35999833Y-58706666D01*
X36033166Y-58673333D01*
X36099833Y-58640000D01*
X36233166Y-58640000D01*
X36299833Y-58673333D01*
D11*
X22047142Y-69200000D02*
X22761428Y-69200000D01*
X21904285Y-69628571D02*
X22404285Y-68128571D01*
X22904285Y-69628571D01*
X23404285Y-68628571D02*
X23404285Y-69628571D01*
X23547142Y-69057142D02*
X23975714Y-69628571D01*
X23975714Y-68628571D02*
X23404285Y-69200000D01*
X24618571Y-68628571D02*
X24618571Y-69628571D01*
X24761428Y-69057142D02*
X25190000Y-69628571D01*
X25190000Y-68628571D02*
X24618571Y-69200000D01*
X25690000Y-68628571D02*
X26047142Y-69628571D01*
X26404285Y-68628571D02*
X26047142Y-69628571D01*
X25904285Y-69985714D01*
X25832857Y-70057142D01*
X25690000Y-70128571D01*
X26975714Y-69628571D02*
X26975714Y-68628571D01*
X27404285Y-69414285D01*
X27832857Y-68628571D01*
X27832857Y-69628571D01*
X28404285Y-68628571D02*
X28761428Y-69628571D01*
X29118571Y-68628571D02*
X28761428Y-69628571D01*
X28618571Y-69985714D01*
X28547142Y-70057142D01*
X28404285Y-70128571D01*
X30261428Y-69628571D02*
X30261428Y-68628571D01*
X30047142Y-68628571D01*
X29904285Y-68700000D01*
X29832857Y-68842857D01*
X29761428Y-69414285D01*
X29690000Y-69557142D01*
X29547142Y-69628571D01*
X31261428Y-69200000D02*
X30904285Y-69628571D01*
X31547142Y-69628571D02*
X31547142Y-68628571D01*
X31118571Y-68628571D01*
X30975714Y-68700000D01*
X30904285Y-68842857D01*
X30904285Y-68985714D01*
X30975714Y-69128571D01*
X31118571Y-69200000D01*
X31547142Y-69200000D01*
X32047142Y-68628571D02*
X32761428Y-68628571D01*
X32404285Y-68628571D02*
X32404285Y-69628571D01*
X33475714Y-69628571D02*
X33332857Y-69557142D01*
X33261428Y-69485714D01*
X33190000Y-69342857D01*
X33190000Y-68914285D01*
X33261428Y-68771428D01*
X33332857Y-68700000D01*
X33475714Y-68628571D01*
X33690000Y-68628571D01*
X33832857Y-68700000D01*
X33904285Y-68771428D01*
X33975714Y-68914285D01*
X33975714Y-69342857D01*
X33904285Y-69485714D01*
X33832857Y-69557142D01*
X33690000Y-69628571D01*
X33475714Y-69628571D01*
X34618571Y-68628571D02*
X34618571Y-70128571D01*
X34618571Y-68700000D02*
X34761428Y-68628571D01*
X35047142Y-68628571D01*
X35190000Y-68700000D01*
X35261428Y-68771428D01*
X35332857Y-68914285D01*
X35332857Y-69342857D01*
X35261428Y-69485714D01*
X35190000Y-69557142D01*
X35047142Y-69628571D01*
X34761428Y-69628571D01*
X34618571Y-69557142D01*
X51117857Y-23400571D02*
X51117857Y-21900571D01*
X51617857Y-22972000D01*
X52117857Y-21900571D01*
X52117857Y-23400571D01*
X53475000Y-23400571D02*
X53475000Y-22614857D01*
X53403571Y-22472000D01*
X53260714Y-22400571D01*
X52975000Y-22400571D01*
X52832142Y-22472000D01*
X53475000Y-23329142D02*
X53332142Y-23400571D01*
X52975000Y-23400571D01*
X52832142Y-23329142D01*
X52760714Y-23186285D01*
X52760714Y-23043428D01*
X52832142Y-22900571D01*
X52975000Y-22829142D01*
X53332142Y-22829142D01*
X53475000Y-22757714D01*
X54189285Y-23400571D02*
X54189285Y-22400571D01*
X54760714Y-22400571D01*
X55260714Y-22900571D02*
X55903571Y-22900571D01*
X55260714Y-22400571D02*
X55260714Y-23400571D01*
X55903571Y-22400571D02*
X55903571Y-23400571D01*
X56617857Y-22400571D02*
X56617857Y-23400571D01*
X57332142Y-22400571D01*
X57332142Y-23400571D01*
X57832142Y-22400571D02*
X58546428Y-22400571D01*
X58189285Y-22400571D02*
X58189285Y-23400571D01*
X23951428Y-23122857D02*
X24237142Y-23122857D01*
X23737142Y-22480000D02*
X23880000Y-22408571D01*
X24237142Y-22408571D01*
X24380000Y-22480000D01*
X24451428Y-22551428D01*
X24522857Y-22694285D01*
X24522857Y-22837142D01*
X24451428Y-22980000D01*
X24380000Y-23051428D01*
X24237142Y-23122857D01*
X24451428Y-23194285D01*
X24522857Y-23265714D01*
X24594285Y-23408571D01*
X24594285Y-23622857D01*
X24522857Y-23765714D01*
X24451428Y-23837142D01*
X24308571Y-23908571D01*
X23880000Y-23908571D01*
X23737142Y-23837142D01*
X25165714Y-22408571D02*
X25665714Y-23408571D01*
X26165714Y-22408571D02*
X25522857Y-23694285D01*
X25380000Y-23837142D01*
X25237142Y-23908571D01*
X25165714Y-23908571D01*
D12*
X34050000Y-31840000D02*
X30200000Y-31840000D01*
X23330000Y-31840000D02*
X27180000Y-31840000D01*
X23330000Y-41495563D02*
X23330000Y-31840000D01*
X34050000Y-41495563D02*
X34050000Y-31840000D01*
X32985563Y-42560000D02*
X30200000Y-42560000D01*
X24394437Y-42560000D02*
X27180000Y-42560000D01*
X24394437Y-42560000D02*
X23330000Y-41495563D01*
X32985563Y-42560000D02*
X34050000Y-41495563D01*
X25930000Y-44050000D02*
X25930000Y-42800000D01*
X25305000Y-43425000D02*
X26555000Y-43425000D01*
X53824758Y-67694500D02*
X53350242Y-67694500D01*
X53824758Y-66649500D02*
X53350242Y-66649500D01*
X34685000Y-34290000D02*
X34685000Y-35790000D01*
X34685000Y-35790000D02*
X35635000Y-35790000D01*
X35635000Y-35790000D02*
X35635000Y-40915000D01*
X45085000Y-34290000D02*
X45085000Y-35790000D01*
X45085000Y-35790000D02*
X44135000Y-35790000D01*
X44135000Y-35790000D02*
X44135000Y-36890000D01*
X56265000Y-45395000D02*
X54030000Y-45395000D01*
X54030000Y-45395000D02*
X54030000Y-55675000D01*
X54030000Y-55675000D02*
X60500000Y-55675000D01*
X60500000Y-55675000D02*
X60500000Y-45395000D01*
X60500000Y-45395000D02*
X58265000Y-45395000D01*
X58265000Y-45395000D02*
G75*
G02*
X56265000Y-45395000I-1000000J0D01*
G01*
X43535000Y-64750000D02*
X43535000Y-65680000D01*
X43535000Y-67910000D02*
X43535000Y-66980000D01*
X43535000Y-67910000D02*
X45695000Y-67910000D01*
X43535000Y-64750000D02*
X44995000Y-64750000D01*
X41348835Y-45429251D02*
X39113835Y-45429251D01*
X39113835Y-45429251D02*
X39113835Y-55709251D01*
X39113835Y-55709251D02*
X45583835Y-55709251D01*
X45583835Y-55709251D02*
X45583835Y-45429251D01*
X45583835Y-45429251D02*
X43348835Y-45429251D01*
X43348835Y-45429251D02*
G75*
G02*
X41348835Y-45429251I-1000000J0D01*
G01*
X51550000Y-59215000D02*
X49350000Y-59215000D01*
X51550000Y-59215000D02*
X53750000Y-59215000D01*
X51550000Y-65985000D02*
X49350000Y-65985000D01*
X51550000Y-65985000D02*
X55150000Y-65985000D01*
X44046000Y-64464000D02*
X45846000Y-64464000D01*
X45846000Y-61244000D02*
X43396000Y-61244000D01*
X60967742Y-44043500D02*
X61442258Y-44043500D01*
X60967742Y-45088500D02*
X61442258Y-45088500D01*
X62994500Y-34422742D02*
X62994500Y-34897258D01*
X61949500Y-34422742D02*
X61949500Y-34897258D01*
X50802500Y-47312742D02*
X50802500Y-47787258D01*
X49757500Y-47312742D02*
X49757500Y-47787258D01*
X39362500Y-42707258D02*
X39362500Y-42232742D01*
X40407500Y-42707258D02*
X40407500Y-42232742D01*
X37007500Y-42232742D02*
X37007500Y-42707258D01*
X35962500Y-42232742D02*
X35962500Y-42707258D01*
X35152500Y-51251509D02*
X35152500Y-50776993D01*
X36197500Y-51251509D02*
X36197500Y-50776993D01*
X24103500Y-57440258D02*
X24103500Y-56965742D01*
X25148500Y-57440258D02*
X25148500Y-56965742D01*
X36992258Y-45342500D02*
X36517742Y-45342500D01*
X36992258Y-44297500D02*
X36517742Y-44297500D01*
X24103500Y-60106258D02*
X24103500Y-59631742D01*
X25148500Y-60106258D02*
X25148500Y-59631742D01*
X57123500Y-67451132D02*
X57123500Y-66976616D01*
X58168500Y-67451132D02*
X58168500Y-66976616D01*
X59968000Y-63599258D02*
X59968000Y-63124742D01*
X61013000Y-63599258D02*
X61013000Y-63124742D01*
X61597500Y-30612742D02*
X61597500Y-31087258D01*
X60552500Y-30612742D02*
X60552500Y-31087258D01*
X56709742Y-61823500D02*
X57184258Y-61823500D01*
X56709742Y-62868500D02*
X57184258Y-62868500D01*
X23890000Y-54205000D02*
X23890000Y-55705000D01*
X23890000Y-55705000D02*
X25700000Y-55705000D01*
X25700000Y-55705000D02*
X25700000Y-60830000D01*
X34290000Y-54205000D02*
X34290000Y-55705000D01*
X34290000Y-55705000D02*
X32480000Y-55705000D01*
X32480000Y-55705000D02*
X32480000Y-56805000D01*
X55180000Y-38175000D02*
G75*
G03*
X55180000Y-38175000I-4900000J0D01*
G01*
X60500000Y-60120000D02*
X60500000Y-57460000D01*
X57900000Y-60120000D02*
X60500000Y-60120000D01*
X57900000Y-57460000D02*
X60500000Y-57460000D01*
X57900000Y-60120000D02*
X57900000Y-57460000D01*
X56630000Y-60120000D02*
X55300000Y-60120000D01*
X55300000Y-60120000D02*
X55300000Y-58790000D01*
X33750000Y-67600000D02*
X33750000Y-61630000D01*
X33750000Y-61630000D02*
X23630000Y-61630000D01*
X23630000Y-61630000D02*
X23630000Y-67600000D01*
X23630000Y-67600000D02*
X33750000Y-67600000D01*
X30440000Y-67590000D02*
X30440000Y-66840000D01*
X30440000Y-66840000D02*
X26940000Y-66840000D01*
X26940000Y-66840000D02*
X26940000Y-67590000D01*
X26940000Y-67590000D02*
X30440000Y-67590000D01*
X33740000Y-67590000D02*
X33740000Y-66840000D01*
X33740000Y-66840000D02*
X31940000Y-66840000D01*
X31940000Y-66840000D02*
X31940000Y-67590000D01*
X31940000Y-67590000D02*
X33740000Y-67590000D01*
X25440000Y-67590000D02*
X25440000Y-66840000D01*
X25440000Y-66840000D02*
X23640000Y-66840000D01*
X23640000Y-66840000D02*
X23640000Y-67590000D01*
X23640000Y-67590000D02*
X25440000Y-67590000D01*
X33740000Y-65340000D02*
X32990000Y-65340000D01*
X32990000Y-65340000D02*
X32990000Y-62390000D01*
X32990000Y-62390000D02*
X28690000Y-62390000D01*
X23640000Y-65340000D02*
X24390000Y-65340000D01*
X24390000Y-65340000D02*
X24390000Y-62390000D01*
X24390000Y-62390000D02*
X28690000Y-62390000D01*
X32790000Y-67890000D02*
X34040000Y-67890000D01*
X34040000Y-67890000D02*
X34040000Y-66640000D01*
X46510000Y-55622000D02*
X54010000Y-55622000D01*
X54010000Y-55622000D02*
X54010000Y-59122000D01*
X54010000Y-59122000D02*
X46510000Y-59122000D01*
X46510000Y-59122000D02*
X46510000Y-55622000D01*
X59745000Y-32040000D02*
X59745000Y-26070000D01*
X59745000Y-26070000D02*
X49625000Y-26070000D01*
X49625000Y-26070000D02*
X49625000Y-32040000D01*
X49625000Y-32040000D02*
X59745000Y-32040000D01*
X56435000Y-32030000D02*
X56435000Y-31280000D01*
X56435000Y-31280000D02*
X52935000Y-31280000D01*
X52935000Y-31280000D02*
X52935000Y-32030000D01*
X52935000Y-32030000D02*
X56435000Y-32030000D01*
X59735000Y-32030000D02*
X59735000Y-31280000D01*
X59735000Y-31280000D02*
X57935000Y-31280000D01*
X57935000Y-31280000D02*
X57935000Y-32030000D01*
X57935000Y-32030000D02*
X59735000Y-32030000D01*
X51435000Y-32030000D02*
X51435000Y-31280000D01*
X51435000Y-31280000D02*
X49635000Y-31280000D01*
X49635000Y-31280000D02*
X49635000Y-32030000D01*
X49635000Y-32030000D02*
X51435000Y-32030000D01*
X59735000Y-29780000D02*
X58985000Y-29780000D01*
X58985000Y-29780000D02*
X58985000Y-26830000D01*
X58985000Y-26830000D02*
X54685000Y-26830000D01*
X49635000Y-29780000D02*
X50385000Y-29780000D01*
X50385000Y-29780000D02*
X50385000Y-26830000D01*
X50385000Y-26830000D02*
X54685000Y-26830000D01*
X58785000Y-32330000D02*
X60035000Y-32330000D01*
X60035000Y-32330000D02*
X60035000Y-31080000D01*
X23590000Y-25215000D02*
X23590000Y-31185000D01*
X23590000Y-31185000D02*
X33710000Y-31185000D01*
X33710000Y-31185000D02*
X33710000Y-25215000D01*
X33710000Y-25215000D02*
X23590000Y-25215000D01*
X26900000Y-25225000D02*
X26900000Y-25975000D01*
X26900000Y-25975000D02*
X30400000Y-25975000D01*
X30400000Y-25975000D02*
X30400000Y-25225000D01*
X30400000Y-25225000D02*
X26900000Y-25225000D01*
X23600000Y-25225000D02*
X23600000Y-25975000D01*
X23600000Y-25975000D02*
X25400000Y-25975000D01*
X25400000Y-25975000D02*
X25400000Y-25225000D01*
X25400000Y-25225000D02*
X23600000Y-25225000D01*
X31900000Y-25225000D02*
X31900000Y-25975000D01*
X31900000Y-25975000D02*
X33700000Y-25975000D01*
X33700000Y-25975000D02*
X33700000Y-25225000D01*
X33700000Y-25225000D02*
X31900000Y-25225000D01*
X23600000Y-27475000D02*
X24350000Y-27475000D01*
X24350000Y-27475000D02*
X24350000Y-30425000D01*
X24350000Y-30425000D02*
X28650000Y-30425000D01*
X33700000Y-27475000D02*
X32950000Y-27475000D01*
X32950000Y-27475000D02*
X32950000Y-30425000D01*
X32950000Y-30425000D02*
X28650000Y-30425000D01*
X24550000Y-24925000D02*
X23300000Y-24925000D01*
X23300000Y-24925000D02*
X23300000Y-26175000D01*
X37025000Y-68890000D02*
X42995000Y-68890000D01*
X42995000Y-68890000D02*
X42995000Y-56270000D01*
X42995000Y-56270000D02*
X37025000Y-56270000D01*
X37025000Y-56270000D02*
X37025000Y-68890000D01*
X37035000Y-65580000D02*
X37785000Y-65580000D01*
X37785000Y-65580000D02*
X37785000Y-59580000D01*
X37785000Y-59580000D02*
X37035000Y-59580000D01*
X37035000Y-59580000D02*
X37035000Y-65580000D01*
X37035000Y-68880000D02*
X37785000Y-68880000D01*
X37785000Y-68880000D02*
X37785000Y-67080000D01*
X37785000Y-67080000D02*
X37035000Y-67080000D01*
X37035000Y-67080000D02*
X37035000Y-68880000D01*
X37035000Y-58080000D02*
X37785000Y-58080000D01*
X37785000Y-58080000D02*
X37785000Y-56280000D01*
X37785000Y-56280000D02*
X37035000Y-56280000D01*
X37035000Y-56280000D02*
X37035000Y-58080000D01*
X39285000Y-68880000D02*
X39285000Y-68130000D01*
X39285000Y-68130000D02*
X42235000Y-68130000D01*
X42235000Y-68130000D02*
X42235000Y-62580000D01*
X39285000Y-56280000D02*
X39285000Y-57030000D01*
X39285000Y-57030000D02*
X42235000Y-57030000D01*
X42235000Y-57030000D02*
X42235000Y-62580000D01*
X36735000Y-67930000D02*
X36735000Y-69180000D01*
X36735000Y-69180000D02*
X37985000Y-69180000D01*
X60060000Y-29170000D02*
X63360000Y-29170000D01*
X63360000Y-29170000D02*
X63360000Y-23770000D01*
X60060000Y-29170000D02*
X60060000Y-23770000D01*
X46090000Y-31805000D02*
X49390000Y-31805000D01*
X49390000Y-31805000D02*
X49390000Y-26405000D01*
X46090000Y-31805000D02*
X46090000Y-26405000D01*
X55437000Y-64237500D02*
X55437000Y-66722500D01*
X55437000Y-66722500D02*
X56807000Y-66722500D01*
X56807000Y-66722500D02*
X56807000Y-64237500D01*
X61760000Y-34825000D02*
X61760000Y-32340000D01*
X61760000Y-32340000D02*
X60390000Y-32340000D01*
X60390000Y-32340000D02*
X60390000Y-34825000D01*
X58878000Y-62015000D02*
X61363000Y-62015000D01*
X61363000Y-62015000D02*
X61363000Y-60645000D01*
X61363000Y-60645000D02*
X58878000Y-60645000D01*
X49520000Y-52473671D02*
X49520000Y-52754831D01*
X48500000Y-52473671D02*
X48500000Y-52754831D01*
X45059420Y-59296000D02*
X45340580Y-59296000D01*
X45059420Y-60316000D02*
X45340580Y-60316000D01*
X56755000Y-34305581D02*
X56755000Y-34024421D01*
X57775000Y-34305581D02*
X57775000Y-34024421D01*
X62580000Y-36215000D02*
X60230000Y-36215000D01*
X55760000Y-36215000D02*
X58110000Y-36215000D01*
X55760000Y-41970563D02*
X55760000Y-36215000D01*
X62580000Y-41970563D02*
X62580000Y-36215000D01*
X61515563Y-43035000D02*
X60230000Y-43035000D01*
X56824437Y-43035000D02*
X58110000Y-43035000D01*
X56824437Y-43035000D02*
X55760000Y-41970563D01*
X61515563Y-43035000D02*
X62580000Y-41970563D01*
X57322500Y-44062500D02*
X57322500Y-43275000D01*
X56928750Y-43668750D02*
X57716250Y-43668750D01*
X58156000Y-64237420D02*
X58156000Y-64518580D01*
X57136000Y-64237420D02*
X57136000Y-64518580D01*
X29284420Y-23990000D02*
X29565580Y-23990000D01*
X29284420Y-25010000D02*
X29565580Y-25010000D01*
D10*
X31698333Y-43907142D02*
X31650714Y-43954761D01*
X31507857Y-44002380D01*
X31412619Y-44002380D01*
X31269761Y-43954761D01*
X31174523Y-43859523D01*
X31126904Y-43764285D01*
X31079285Y-43573809D01*
X31079285Y-43430952D01*
X31126904Y-43240476D01*
X31174523Y-43145238D01*
X31269761Y-43050000D01*
X31412619Y-43002380D01*
X31507857Y-43002380D01*
X31650714Y-43050000D01*
X31698333Y-43097619D01*
X32079285Y-43097619D02*
X32126904Y-43050000D01*
X32222142Y-43002380D01*
X32460238Y-43002380D01*
X32555476Y-43050000D01*
X32603095Y-43097619D01*
X32650714Y-43192857D01*
X32650714Y-43288095D01*
X32603095Y-43430952D01*
X32031666Y-44002380D01*
X32650714Y-44002380D01*
X49891142Y-67624380D02*
X49557809Y-67148190D01*
X49319714Y-67624380D02*
X49319714Y-66624380D01*
X49700666Y-66624380D01*
X49795904Y-66672000D01*
X49843523Y-66719619D01*
X49891142Y-66814857D01*
X49891142Y-66957714D01*
X49843523Y-67052952D01*
X49795904Y-67100571D01*
X49700666Y-67148190D01*
X49319714Y-67148190D01*
X50843523Y-67624380D02*
X50272095Y-67624380D01*
X50557809Y-67624380D02*
X50557809Y-66624380D01*
X50462571Y-66767238D01*
X50367333Y-66862476D01*
X50272095Y-66910095D01*
X51224476Y-66719619D02*
X51272095Y-66672000D01*
X51367333Y-66624380D01*
X51605428Y-66624380D01*
X51700666Y-66672000D01*
X51748285Y-66719619D01*
X51795904Y-66814857D01*
X51795904Y-66910095D01*
X51748285Y-67052952D01*
X51176857Y-67624380D01*
X51795904Y-67624380D01*
X39358095Y-23317380D02*
X39358095Y-24126904D01*
X39405714Y-24222142D01*
X39453333Y-24269761D01*
X39548571Y-24317380D01*
X39739047Y-24317380D01*
X39834285Y-24269761D01*
X39881904Y-24222142D01*
X39929523Y-24126904D01*
X39929523Y-23317380D01*
X40834285Y-23317380D02*
X40643809Y-23317380D01*
X40548571Y-23365000D01*
X40500952Y-23412619D01*
X40405714Y-23555476D01*
X40358095Y-23745952D01*
X40358095Y-24126904D01*
X40405714Y-24222142D01*
X40453333Y-24269761D01*
X40548571Y-24317380D01*
X40739047Y-24317380D01*
X40834285Y-24269761D01*
X40881904Y-24222142D01*
X40929523Y-24126904D01*
X40929523Y-23888809D01*
X40881904Y-23793571D01*
X40834285Y-23745952D01*
X40739047Y-23698333D01*
X40548571Y-23698333D01*
X40453333Y-23745952D01*
X40405714Y-23793571D01*
X40358095Y-23888809D01*
X55106095Y-44018380D02*
X55106095Y-44827904D01*
X55153714Y-44923142D01*
X55201333Y-44970761D01*
X55296571Y-45018380D01*
X55487047Y-45018380D01*
X55582285Y-44970761D01*
X55629904Y-44923142D01*
X55677523Y-44827904D01*
X55677523Y-44018380D01*
X56629904Y-44018380D02*
X56153714Y-44018380D01*
X56106095Y-44494571D01*
X56153714Y-44446952D01*
X56248952Y-44399333D01*
X56487047Y-44399333D01*
X56582285Y-44446952D01*
X56629904Y-44494571D01*
X56677523Y-44589809D01*
X56677523Y-44827904D01*
X56629904Y-44923142D01*
X56582285Y-44970761D01*
X56487047Y-45018380D01*
X56248952Y-45018380D01*
X56153714Y-44970761D01*
X56106095Y-44923142D01*
X43533095Y-68282380D02*
X43533095Y-69091904D01*
X43580714Y-69187142D01*
X43628333Y-69234761D01*
X43723571Y-69282380D01*
X43914047Y-69282380D01*
X44009285Y-69234761D01*
X44056904Y-69187142D01*
X44104523Y-69091904D01*
X44104523Y-68282380D01*
X45009285Y-68615714D02*
X45009285Y-69282380D01*
X44771190Y-68234761D02*
X44533095Y-68949047D01*
X45152142Y-68949047D01*
X43803095Y-43881631D02*
X43803095Y-44691155D01*
X43850714Y-44786393D01*
X43898333Y-44834012D01*
X43993571Y-44881631D01*
X44184047Y-44881631D01*
X44279285Y-44834012D01*
X44326904Y-44786393D01*
X44374523Y-44691155D01*
X44374523Y-43881631D01*
X44755476Y-43881631D02*
X45374523Y-43881631D01*
X45041190Y-44262584D01*
X45184047Y-44262584D01*
X45279285Y-44310203D01*
X45326904Y-44357822D01*
X45374523Y-44453060D01*
X45374523Y-44691155D01*
X45326904Y-44786393D01*
X45279285Y-44834012D01*
X45184047Y-44881631D01*
X44898333Y-44881631D01*
X44803095Y-44834012D01*
X44755476Y-44786393D01*
X50534095Y-57734380D02*
X50534095Y-58543904D01*
X50581714Y-58639142D01*
X50629333Y-58686761D01*
X50724571Y-58734380D01*
X50915047Y-58734380D01*
X51010285Y-58686761D01*
X51057904Y-58639142D01*
X51105523Y-58543904D01*
X51105523Y-57734380D01*
X51534095Y-57829619D02*
X51581714Y-57782000D01*
X51676952Y-57734380D01*
X51915047Y-57734380D01*
X52010285Y-57782000D01*
X52057904Y-57829619D01*
X52105523Y-57924857D01*
X52105523Y-58020095D01*
X52057904Y-58162952D01*
X51486476Y-58734380D01*
X52105523Y-58734380D01*
X42660095Y-60020380D02*
X42660095Y-60829904D01*
X42707714Y-60925142D01*
X42755333Y-60972761D01*
X42850571Y-61020380D01*
X43041047Y-61020380D01*
X43136285Y-60972761D01*
X43183904Y-60925142D01*
X43231523Y-60829904D01*
X43231523Y-60020380D01*
X44231523Y-61020380D02*
X43660095Y-61020380D01*
X43945809Y-61020380D02*
X43945809Y-60020380D01*
X43850571Y-60163238D01*
X43755333Y-60258476D01*
X43660095Y-60306095D01*
X63686380Y-43430857D02*
X63210190Y-43764190D01*
X63686380Y-44002285D02*
X62686380Y-44002285D01*
X62686380Y-43621333D01*
X62734000Y-43526095D01*
X62781619Y-43478476D01*
X62876857Y-43430857D01*
X63019714Y-43430857D01*
X63114952Y-43478476D01*
X63162571Y-43526095D01*
X63210190Y-43621333D01*
X63210190Y-44002285D01*
X63686380Y-42478476D02*
X63686380Y-43049904D01*
X63686380Y-42764190D02*
X62686380Y-42764190D01*
X62829238Y-42859428D01*
X62924476Y-42954666D01*
X62972095Y-43049904D01*
X63019714Y-41621333D02*
X63686380Y-41621333D01*
X62638761Y-41859428D02*
X63353047Y-42097523D01*
X63353047Y-41478476D01*
X64354380Y-35302857D02*
X63878190Y-35636190D01*
X64354380Y-35874285D02*
X63354380Y-35874285D01*
X63354380Y-35493333D01*
X63402000Y-35398095D01*
X63449619Y-35350476D01*
X63544857Y-35302857D01*
X63687714Y-35302857D01*
X63782952Y-35350476D01*
X63830571Y-35398095D01*
X63878190Y-35493333D01*
X63878190Y-35874285D01*
X64354380Y-34350476D02*
X64354380Y-34921904D01*
X64354380Y-34636190D02*
X63354380Y-34636190D01*
X63497238Y-34731428D01*
X63592476Y-34826666D01*
X63640095Y-34921904D01*
X63354380Y-34017142D02*
X63354380Y-33398095D01*
X63735333Y-33731428D01*
X63735333Y-33588571D01*
X63782952Y-33493333D01*
X63830571Y-33445714D01*
X63925809Y-33398095D01*
X64163904Y-33398095D01*
X64259142Y-33445714D01*
X64306761Y-33493333D01*
X64354380Y-33588571D01*
X64354380Y-33874285D01*
X64306761Y-33969523D01*
X64259142Y-34017142D01*
X49462380Y-48002857D02*
X48986190Y-48336190D01*
X49462380Y-48574285D02*
X48462380Y-48574285D01*
X48462380Y-48193333D01*
X48510000Y-48098095D01*
X48557619Y-48050476D01*
X48652857Y-48002857D01*
X48795714Y-48002857D01*
X48890952Y-48050476D01*
X48938571Y-48098095D01*
X48986190Y-48193333D01*
X48986190Y-48574285D01*
X49462380Y-47050476D02*
X49462380Y-47621904D01*
X49462380Y-47336190D02*
X48462380Y-47336190D01*
X48605238Y-47431428D01*
X48700476Y-47526666D01*
X48748095Y-47621904D01*
X49462380Y-46098095D02*
X49462380Y-46669523D01*
X49462380Y-46383809D02*
X48462380Y-46383809D01*
X48605238Y-46479047D01*
X48700476Y-46574285D01*
X48748095Y-46669523D01*
X41842380Y-43557857D02*
X41366190Y-43891190D01*
X41842380Y-44129285D02*
X40842380Y-44129285D01*
X40842380Y-43748333D01*
X40890000Y-43653095D01*
X40937619Y-43605476D01*
X41032857Y-43557857D01*
X41175714Y-43557857D01*
X41270952Y-43605476D01*
X41318571Y-43653095D01*
X41366190Y-43748333D01*
X41366190Y-44129285D01*
X41842380Y-42605476D02*
X41842380Y-43176904D01*
X41842380Y-42891190D02*
X40842380Y-42891190D01*
X40985238Y-42986428D01*
X41080476Y-43081666D01*
X41128095Y-43176904D01*
X40842380Y-41986428D02*
X40842380Y-41891190D01*
X40890000Y-41795952D01*
X40937619Y-41748333D01*
X41032857Y-41700714D01*
X41223333Y-41653095D01*
X41461428Y-41653095D01*
X41651904Y-41700714D01*
X41747142Y-41748333D01*
X41794761Y-41795952D01*
X41842380Y-41891190D01*
X41842380Y-41986428D01*
X41794761Y-42081666D01*
X41747142Y-42129285D01*
X41651904Y-42176904D01*
X41461428Y-42224523D01*
X41223333Y-42224523D01*
X41032857Y-42176904D01*
X40937619Y-42129285D01*
X40890000Y-42081666D01*
X40842380Y-41986428D01*
X35492380Y-43081666D02*
X35016190Y-43415000D01*
X35492380Y-43653095D02*
X34492380Y-43653095D01*
X34492380Y-43272142D01*
X34540000Y-43176904D01*
X34587619Y-43129285D01*
X34682857Y-43081666D01*
X34825714Y-43081666D01*
X34920952Y-43129285D01*
X34968571Y-43176904D01*
X35016190Y-43272142D01*
X35016190Y-43653095D01*
X35492380Y-42605476D02*
X35492380Y-42415000D01*
X35444761Y-42319761D01*
X35397142Y-42272142D01*
X35254285Y-42176904D01*
X35063809Y-42129285D01*
X34682857Y-42129285D01*
X34587619Y-42176904D01*
X34540000Y-42224523D01*
X34492380Y-42319761D01*
X34492380Y-42510238D01*
X34540000Y-42605476D01*
X34587619Y-42653095D01*
X34682857Y-42700714D01*
X34920952Y-42700714D01*
X35016190Y-42653095D01*
X35063809Y-42605476D01*
X35111428Y-42510238D01*
X35111428Y-42319761D01*
X35063809Y-42224523D01*
X35016190Y-42176904D01*
X34920952Y-42129285D01*
X36127380Y-53876666D02*
X35651190Y-54210000D01*
X36127380Y-54448095D02*
X35127380Y-54448095D01*
X35127380Y-54067142D01*
X35175000Y-53971904D01*
X35222619Y-53924285D01*
X35317857Y-53876666D01*
X35460714Y-53876666D01*
X35555952Y-53924285D01*
X35603571Y-53971904D01*
X35651190Y-54067142D01*
X35651190Y-54448095D01*
X35555952Y-53305238D02*
X35508333Y-53400476D01*
X35460714Y-53448095D01*
X35365476Y-53495714D01*
X35317857Y-53495714D01*
X35222619Y-53448095D01*
X35175000Y-53400476D01*
X35127380Y-53305238D01*
X35127380Y-53114761D01*
X35175000Y-53019523D01*
X35222619Y-52971904D01*
X35317857Y-52924285D01*
X35365476Y-52924285D01*
X35460714Y-52971904D01*
X35508333Y-53019523D01*
X35555952Y-53114761D01*
X35555952Y-53305238D01*
X35603571Y-53400476D01*
X35651190Y-53448095D01*
X35746428Y-53495714D01*
X35936904Y-53495714D01*
X36032142Y-53448095D01*
X36079761Y-53400476D01*
X36127380Y-53305238D01*
X36127380Y-53114761D01*
X36079761Y-53019523D01*
X36032142Y-52971904D01*
X35936904Y-52924285D01*
X35746428Y-52924285D01*
X35651190Y-52971904D01*
X35603571Y-53019523D01*
X35555952Y-53114761D01*
X23648380Y-57369666D02*
X23172190Y-57703000D01*
X23648380Y-57941095D02*
X22648380Y-57941095D01*
X22648380Y-57560142D01*
X22696000Y-57464904D01*
X22743619Y-57417285D01*
X22838857Y-57369666D01*
X22981714Y-57369666D01*
X23076952Y-57417285D01*
X23124571Y-57464904D01*
X23172190Y-57560142D01*
X23172190Y-57941095D01*
X22648380Y-57036333D02*
X22648380Y-56369666D01*
X23648380Y-56798238D01*
X39318333Y-45272380D02*
X38985000Y-44796190D01*
X38746904Y-45272380D02*
X38746904Y-44272380D01*
X39127857Y-44272380D01*
X39223095Y-44320000D01*
X39270714Y-44367619D01*
X39318333Y-44462857D01*
X39318333Y-44605714D01*
X39270714Y-44700952D01*
X39223095Y-44748571D01*
X39127857Y-44796190D01*
X38746904Y-44796190D01*
X40175476Y-44272380D02*
X39985000Y-44272380D01*
X39889761Y-44320000D01*
X39842142Y-44367619D01*
X39746904Y-44510476D01*
X39699285Y-44700952D01*
X39699285Y-45081904D01*
X39746904Y-45177142D01*
X39794523Y-45224761D01*
X39889761Y-45272380D01*
X40080238Y-45272380D01*
X40175476Y-45224761D01*
X40223095Y-45177142D01*
X40270714Y-45081904D01*
X40270714Y-44843809D01*
X40223095Y-44748571D01*
X40175476Y-44700952D01*
X40080238Y-44653333D01*
X39889761Y-44653333D01*
X39794523Y-44700952D01*
X39746904Y-44748571D01*
X39699285Y-44843809D01*
X23648380Y-60035666D02*
X23172190Y-60369000D01*
X23648380Y-60607095D02*
X22648380Y-60607095D01*
X22648380Y-60226142D01*
X22696000Y-60130904D01*
X22743619Y-60083285D01*
X22838857Y-60035666D01*
X22981714Y-60035666D01*
X23076952Y-60083285D01*
X23124571Y-60130904D01*
X23172190Y-60226142D01*
X23172190Y-60607095D01*
X22648380Y-59130904D02*
X22648380Y-59607095D01*
X23124571Y-59654714D01*
X23076952Y-59607095D01*
X23029333Y-59511857D01*
X23029333Y-59273761D01*
X23076952Y-59178523D01*
X23124571Y-59130904D01*
X23219809Y-59083285D01*
X23457904Y-59083285D01*
X23553142Y-59130904D01*
X23600761Y-59178523D01*
X23648380Y-59273761D01*
X23648380Y-59511857D01*
X23600761Y-59607095D01*
X23553142Y-59654714D01*
X59368380Y-67338666D02*
X58892190Y-67672000D01*
X59368380Y-67910095D02*
X58368380Y-67910095D01*
X58368380Y-67529142D01*
X58416000Y-67433904D01*
X58463619Y-67386285D01*
X58558857Y-67338666D01*
X58701714Y-67338666D01*
X58796952Y-67386285D01*
X58844571Y-67433904D01*
X58892190Y-67529142D01*
X58892190Y-67910095D01*
X58701714Y-66481523D02*
X59368380Y-66481523D01*
X58320761Y-66719619D02*
X59035047Y-66957714D01*
X59035047Y-66338666D01*
X60892380Y-66068666D02*
X60416190Y-66402000D01*
X60892380Y-66640095D02*
X59892380Y-66640095D01*
X59892380Y-66259142D01*
X59940000Y-66163904D01*
X59987619Y-66116285D01*
X60082857Y-66068666D01*
X60225714Y-66068666D01*
X60320952Y-66116285D01*
X60368571Y-66163904D01*
X60416190Y-66259142D01*
X60416190Y-66640095D01*
X59892380Y-65735333D02*
X59892380Y-65116285D01*
X60273333Y-65449619D01*
X60273333Y-65306761D01*
X60320952Y-65211523D01*
X60368571Y-65163904D01*
X60463809Y-65116285D01*
X60701904Y-65116285D01*
X60797142Y-65163904D01*
X60844761Y-65211523D01*
X60892380Y-65306761D01*
X60892380Y-65592476D01*
X60844761Y-65687714D01*
X60797142Y-65735333D01*
X62559333Y-30540380D02*
X62226000Y-30064190D01*
X61987904Y-30540380D02*
X61987904Y-29540380D01*
X62368857Y-29540380D01*
X62464095Y-29588000D01*
X62511714Y-29635619D01*
X62559333Y-29730857D01*
X62559333Y-29873714D01*
X62511714Y-29968952D01*
X62464095Y-30016571D01*
X62368857Y-30064190D01*
X61987904Y-30064190D01*
X62940285Y-29635619D02*
X62987904Y-29588000D01*
X63083142Y-29540380D01*
X63321238Y-29540380D01*
X63416476Y-29588000D01*
X63464095Y-29635619D01*
X63511714Y-29730857D01*
X63511714Y-29826095D01*
X63464095Y-29968952D01*
X62892666Y-30540380D01*
X63511714Y-30540380D01*
X56780333Y-61368380D02*
X56447000Y-60892190D01*
X56208904Y-61368380D02*
X56208904Y-60368380D01*
X56589857Y-60368380D01*
X56685095Y-60416000D01*
X56732714Y-60463619D01*
X56780333Y-60558857D01*
X56780333Y-60701714D01*
X56732714Y-60796952D01*
X56685095Y-60844571D01*
X56589857Y-60892190D01*
X56208904Y-60892190D01*
X57732714Y-61368380D02*
X57161285Y-61368380D01*
X57447000Y-61368380D02*
X57447000Y-60368380D01*
X57351761Y-60511238D01*
X57256523Y-60606476D01*
X57161285Y-60654095D01*
X24022761Y-44097619D02*
X23927523Y-44050000D01*
X23832285Y-43954761D01*
X23689428Y-43811904D01*
X23594190Y-43764285D01*
X23498952Y-43764285D01*
X23546571Y-44002380D02*
X23451333Y-43954761D01*
X23356095Y-43859523D01*
X23308476Y-43669047D01*
X23308476Y-43335714D01*
X23356095Y-43145238D01*
X23451333Y-43050000D01*
X23546571Y-43002380D01*
X23737047Y-43002380D01*
X23832285Y-43050000D01*
X23927523Y-43145238D01*
X23975142Y-43335714D01*
X23975142Y-43669047D01*
X23927523Y-43859523D01*
X23832285Y-43954761D01*
X23737047Y-44002380D01*
X23546571Y-44002380D01*
X24927523Y-44002380D02*
X24356095Y-44002380D01*
X24641809Y-44002380D02*
X24641809Y-43002380D01*
X24546571Y-43145238D01*
X24451333Y-43240476D01*
X24356095Y-43288095D01*
X50113333Y-45272380D02*
X49637142Y-45272380D01*
X49637142Y-44272380D01*
X50970476Y-45272380D02*
X50399047Y-45272380D01*
X50684761Y-45272380D02*
X50684761Y-44272380D01*
X50589523Y-44415238D01*
X50494285Y-44510476D01*
X50399047Y-44558095D01*
X57066666Y-56210380D02*
X57066666Y-56924666D01*
X57019047Y-57067523D01*
X56923809Y-57162761D01*
X56780952Y-57210380D01*
X56685714Y-57210380D01*
X57542857Y-57210380D02*
X57542857Y-56210380D01*
X57923809Y-56210380D01*
X58019047Y-56258000D01*
X58066666Y-56305619D01*
X58114285Y-56400857D01*
X58114285Y-56543714D01*
X58066666Y-56638952D01*
X58019047Y-56686571D01*
X57923809Y-56734190D01*
X57542857Y-56734190D01*
X59066666Y-57210380D02*
X58495238Y-57210380D01*
X58780952Y-57210380D02*
X58780952Y-56210380D01*
X58685714Y-56353238D01*
X58590476Y-56448476D01*
X58495238Y-56496095D01*
X22260666Y-66624380D02*
X22260666Y-67338666D01*
X22213047Y-67481523D01*
X22117809Y-67576761D01*
X21974952Y-67624380D01*
X21879714Y-67624380D01*
X22784476Y-67624380D02*
X22974952Y-67624380D01*
X23070190Y-67576761D01*
X23117809Y-67529142D01*
X23213047Y-67386285D01*
X23260666Y-67195809D01*
X23260666Y-66814857D01*
X23213047Y-66719619D01*
X23165428Y-66672000D01*
X23070190Y-66624380D01*
X22879714Y-66624380D01*
X22784476Y-66672000D01*
X22736857Y-66719619D01*
X22689238Y-66814857D01*
X22689238Y-67052952D01*
X22736857Y-67148190D01*
X22784476Y-67195809D01*
X22879714Y-67243428D01*
X23070190Y-67243428D01*
X23165428Y-67195809D01*
X23213047Y-67148190D01*
X23260666Y-67052952D01*
X49676666Y-59774380D02*
X49676666Y-60488666D01*
X49629047Y-60631523D01*
X49533809Y-60726761D01*
X49390952Y-60774380D01*
X49295714Y-60774380D01*
X50581428Y-60107714D02*
X50581428Y-60774380D01*
X50343333Y-59726761D02*
X50105238Y-60441047D01*
X50724285Y-60441047D01*
X55661666Y-32207381D02*
X55661666Y-32921667D01*
X55614047Y-33064524D01*
X55518809Y-33159762D01*
X55375952Y-33207381D01*
X55280714Y-33207381D01*
X56042619Y-32207381D02*
X56661666Y-32207381D01*
X56328333Y-32588334D01*
X56471190Y-32588334D01*
X56566428Y-32635953D01*
X56614047Y-32683572D01*
X56661666Y-32778810D01*
X56661666Y-33016905D01*
X56614047Y-33112143D01*
X56566428Y-33159762D01*
X56471190Y-33207381D01*
X56185476Y-33207381D01*
X56090238Y-33159762D01*
X56042619Y-33112143D01*
X32420666Y-23952380D02*
X32420666Y-24666666D01*
X32373047Y-24809523D01*
X32277809Y-24904761D01*
X32134952Y-24952380D01*
X32039714Y-24952380D01*
X32849238Y-24047619D02*
X32896857Y-24000000D01*
X32992095Y-23952380D01*
X33230190Y-23952380D01*
X33325428Y-24000000D01*
X33373047Y-24047619D01*
X33420666Y-24142857D01*
X33420666Y-24238095D01*
X33373047Y-24380952D01*
X32801619Y-24952380D01*
X33420666Y-24952380D01*
X35601666Y-55702380D02*
X35601666Y-56416666D01*
X35554047Y-56559523D01*
X35458809Y-56654761D01*
X35315952Y-56702380D01*
X35220714Y-56702380D01*
X36601666Y-56702380D02*
X36030238Y-56702380D01*
X36315952Y-56702380D02*
X36315952Y-55702380D01*
X36220714Y-55845238D01*
X36125476Y-55940476D01*
X36030238Y-55988095D01*
X64702380Y-27143095D02*
X63702380Y-27143095D01*
X63702380Y-26905000D01*
X63750000Y-26762142D01*
X63845238Y-26666904D01*
X63940476Y-26619285D01*
X64130952Y-26571666D01*
X64273809Y-26571666D01*
X64464285Y-26619285D01*
X64559523Y-26666904D01*
X64654761Y-26762142D01*
X64702380Y-26905000D01*
X64702380Y-27143095D01*
X63702380Y-25666904D02*
X63702380Y-26143095D01*
X64178571Y-26190714D01*
X64130952Y-26143095D01*
X64083333Y-26047857D01*
X64083333Y-25809761D01*
X64130952Y-25714523D01*
X64178571Y-25666904D01*
X64273809Y-25619285D01*
X64511904Y-25619285D01*
X64607142Y-25666904D01*
X64654761Y-25714523D01*
X64702380Y-25809761D01*
X64702380Y-26047857D01*
X64654761Y-26143095D01*
X64607142Y-26190714D01*
X47001904Y-24317380D02*
X47001904Y-23317380D01*
X47240000Y-23317380D01*
X47382857Y-23365000D01*
X47478095Y-23460238D01*
X47525714Y-23555476D01*
X47573333Y-23745952D01*
X47573333Y-23888809D01*
X47525714Y-24079285D01*
X47478095Y-24174523D01*
X47382857Y-24269761D01*
X47240000Y-24317380D01*
X47001904Y-24317380D01*
X48430476Y-23650714D02*
X48430476Y-24317380D01*
X48192380Y-23269761D02*
X47954285Y-23984047D01*
X48573333Y-23984047D01*
X55383904Y-67878380D02*
X55383904Y-66878380D01*
X55622000Y-66878380D01*
X55764857Y-66926000D01*
X55860095Y-67021238D01*
X55907714Y-67116476D01*
X55955333Y-67306952D01*
X55955333Y-67449809D01*
X55907714Y-67640285D01*
X55860095Y-67735523D01*
X55764857Y-67830761D01*
X55622000Y-67878380D01*
X55383904Y-67878380D01*
X56288666Y-66878380D02*
X56907714Y-66878380D01*
X56574380Y-67259333D01*
X56717238Y-67259333D01*
X56812476Y-67306952D01*
X56860095Y-67354571D01*
X56907714Y-67449809D01*
X56907714Y-67687904D01*
X56860095Y-67783142D01*
X56812476Y-67830761D01*
X56717238Y-67878380D01*
X56431523Y-67878380D01*
X56336285Y-67830761D01*
X56288666Y-67783142D01*
X61987904Y-33080380D02*
X61987904Y-32080380D01*
X62226000Y-32080380D01*
X62368857Y-32128000D01*
X62464095Y-32223238D01*
X62511714Y-32318476D01*
X62559333Y-32508952D01*
X62559333Y-32651809D01*
X62511714Y-32842285D01*
X62464095Y-32937523D01*
X62368857Y-33032761D01*
X62226000Y-33080380D01*
X61987904Y-33080380D01*
X62940285Y-32175619D02*
X62987904Y-32128000D01*
X63083142Y-32080380D01*
X63321238Y-32080380D01*
X63416476Y-32128000D01*
X63464095Y-32175619D01*
X63511714Y-32270857D01*
X63511714Y-32366095D01*
X63464095Y-32508952D01*
X62892666Y-33080380D01*
X63511714Y-33080380D01*
X62261904Y-61452380D02*
X62261904Y-60452380D01*
X62500000Y-60452380D01*
X62642857Y-60500000D01*
X62738095Y-60595238D01*
X62785714Y-60690476D01*
X62833333Y-60880952D01*
X62833333Y-61023809D01*
X62785714Y-61214285D01*
X62738095Y-61309523D01*
X62642857Y-61404761D01*
X62500000Y-61452380D01*
X62261904Y-61452380D01*
X63785714Y-61452380D02*
X63214285Y-61452380D01*
X63500000Y-61452380D02*
X63500000Y-60452380D01*
X63404761Y-60595238D01*
X63309523Y-60690476D01*
X63214285Y-60738095D01*
X50797142Y-52780917D02*
X50844761Y-52828536D01*
X50892380Y-52971393D01*
X50892380Y-53066631D01*
X50844761Y-53209489D01*
X50749523Y-53304727D01*
X50654285Y-53352346D01*
X50463809Y-53399965D01*
X50320952Y-53399965D01*
X50130476Y-53352346D01*
X50035238Y-53304727D01*
X49940000Y-53209489D01*
X49892380Y-53066631D01*
X49892380Y-52971393D01*
X49940000Y-52828536D01*
X49987619Y-52780917D01*
X49892380Y-52447584D02*
X49892380Y-51780917D01*
X50892380Y-52209489D01*
X45033333Y-58733142D02*
X44985714Y-58780761D01*
X44842857Y-58828380D01*
X44747619Y-58828380D01*
X44604761Y-58780761D01*
X44509523Y-58685523D01*
X44461904Y-58590285D01*
X44414285Y-58399809D01*
X44414285Y-58256952D01*
X44461904Y-58066476D01*
X44509523Y-57971238D01*
X44604761Y-57876000D01*
X44747619Y-57828380D01*
X44842857Y-57828380D01*
X44985714Y-57876000D01*
X45033333Y-57923619D01*
X45890476Y-57828380D02*
X45700000Y-57828380D01*
X45604761Y-57876000D01*
X45557142Y-57923619D01*
X45461904Y-58066476D01*
X45414285Y-58256952D01*
X45414285Y-58637904D01*
X45461904Y-58733142D01*
X45509523Y-58780761D01*
X45604761Y-58828380D01*
X45795238Y-58828380D01*
X45890476Y-58780761D01*
X45938095Y-58733142D01*
X45985714Y-58637904D01*
X45985714Y-58399809D01*
X45938095Y-58304571D01*
X45890476Y-58256952D01*
X45795238Y-58209333D01*
X45604761Y-58209333D01*
X45509523Y-58256952D01*
X45461904Y-58304571D01*
X45414285Y-58399809D01*
X59003333Y-34382142D02*
X58955714Y-34429761D01*
X58812857Y-34477380D01*
X58717619Y-34477380D01*
X58574761Y-34429761D01*
X58479523Y-34334523D01*
X58431904Y-34239285D01*
X58384285Y-34048809D01*
X58384285Y-33905952D01*
X58431904Y-33715476D01*
X58479523Y-33620238D01*
X58574761Y-33525000D01*
X58717619Y-33477380D01*
X58812857Y-33477380D01*
X58955714Y-33525000D01*
X59003333Y-33572619D01*
X59908095Y-33477380D02*
X59431904Y-33477380D01*
X59384285Y-33953571D01*
X59431904Y-33905952D01*
X59527142Y-33858333D01*
X59765238Y-33858333D01*
X59860476Y-33905952D01*
X59908095Y-33953571D01*
X59955714Y-34048809D01*
X59955714Y-34286904D01*
X59908095Y-34382142D01*
X59860476Y-34429761D01*
X59765238Y-34477380D01*
X59527142Y-34477380D01*
X59431904Y-34429761D01*
X59384285Y-34382142D01*
X63448333Y-40097142D02*
X63400714Y-40144761D01*
X63257857Y-40192380D01*
X63162619Y-40192380D01*
X63019761Y-40144761D01*
X62924523Y-40049523D01*
X62876904Y-39954285D01*
X62829285Y-39763809D01*
X62829285Y-39620952D01*
X62876904Y-39430476D01*
X62924523Y-39335238D01*
X63019761Y-39240000D01*
X63162619Y-39192380D01*
X63257857Y-39192380D01*
X63400714Y-39240000D01*
X63448333Y-39287619D01*
X64305476Y-39525714D02*
X64305476Y-40192380D01*
X64067380Y-39144761D02*
X63829285Y-39859047D01*
X64448333Y-39859047D01*
X59273142Y-64544666D02*
X59320761Y-64592285D01*
X59368380Y-64735142D01*
X59368380Y-64830380D01*
X59320761Y-64973238D01*
X59225523Y-65068476D01*
X59130285Y-65116095D01*
X58939809Y-65163714D01*
X58796952Y-65163714D01*
X58606476Y-65116095D01*
X58511238Y-65068476D01*
X58416000Y-64973238D01*
X58368380Y-64830380D01*
X58368380Y-64735142D01*
X58416000Y-64592285D01*
X58463619Y-64544666D01*
X58368380Y-64211333D02*
X58368380Y-63592285D01*
X58749333Y-63925619D01*
X58749333Y-63782761D01*
X58796952Y-63687523D01*
X58844571Y-63639904D01*
X58939809Y-63592285D01*
X59177904Y-63592285D01*
X59273142Y-63639904D01*
X59320761Y-63687523D01*
X59368380Y-63782761D01*
X59368380Y-64068476D01*
X59320761Y-64163714D01*
X59273142Y-64211333D01*
X26999333Y-24857142D02*
X26951714Y-24904761D01*
X26808857Y-24952380D01*
X26713619Y-24952380D01*
X26570761Y-24904761D01*
X26475523Y-24809523D01*
X26427904Y-24714285D01*
X26380285Y-24523809D01*
X26380285Y-24380952D01*
X26427904Y-24190476D01*
X26475523Y-24095238D01*
X26570761Y-24000000D01*
X26713619Y-23952380D01*
X26808857Y-23952380D01*
X26951714Y-24000000D01*
X26999333Y-24047619D01*
X27951714Y-24952380D02*
X27380285Y-24952380D01*
X27666000Y-24952380D02*
X27666000Y-23952380D01*
X27570761Y-24095238D01*
X27475523Y-24190476D01*
X27380285Y-24238095D01*
%LPC*%
D13*
X23166726Y-70833274D03*
X22000000Y-70350000D03*
X20833274Y-70833274D03*
X20350000Y-72000000D03*
X20833274Y-73166726D03*
X22000000Y-73650000D03*
X23166726Y-73166726D03*
X23650000Y-72000000D03*
D14*
X22000000Y-72000000D03*
D13*
X65166726Y-70833274D03*
X64000000Y-70350000D03*
X62833274Y-70833274D03*
X62350000Y-72000000D03*
X62833274Y-73166726D03*
X64000000Y-73650000D03*
X65166726Y-73166726D03*
X65650000Y-72000000D03*
D14*
X64000000Y-72000000D03*
D13*
X23166726Y-18833274D03*
X22000000Y-18350000D03*
X20833274Y-18833274D03*
X20350000Y-20000000D03*
X20833274Y-21166726D03*
X22000000Y-21650000D03*
X23166726Y-21166726D03*
X23650000Y-20000000D03*
D14*
X22000000Y-20000000D03*
D13*
X65166726Y-18833274D03*
X64000000Y-18350000D03*
X62833274Y-18833274D03*
X62350000Y-20000000D03*
X62833274Y-21166726D03*
X64000000Y-21650000D03*
X65166726Y-21166726D03*
X65650000Y-20000000D03*
D14*
X64000000Y-20000000D03*
G36*
G01*
X29690000Y-35200000D02*
X27690000Y-35200000D01*
G75*
G02*
X27440000Y-34950000I0J250000D01*
G01*
X27440000Y-31050000D01*
G75*
G02*
X27690000Y-30800000I250000J0D01*
G01*
X29690000Y-30800000D01*
G75*
G02*
X29940000Y-31050000I0J-250000D01*
G01*
X29940000Y-34950000D01*
G75*
G02*
X29690000Y-35200000I-250000J0D01*
G01*
G37*
G36*
G01*
X29690000Y-43600000D02*
X27690000Y-43600000D01*
G75*
G02*
X27440000Y-43350000I0J250000D01*
G01*
X27440000Y-39450000D01*
G75*
G02*
X27690000Y-39200000I250000J0D01*
G01*
X29690000Y-39200000D01*
G75*
G02*
X29940000Y-39450000I0J-250000D01*
G01*
X29940000Y-43350000D01*
G75*
G02*
X29690000Y-43600000I-250000J0D01*
G01*
G37*
G36*
G01*
X53162500Y-66897000D02*
X53162500Y-67447000D01*
G75*
G02*
X52962500Y-67647000I-200000J0D01*
G01*
X52562500Y-67647000D01*
G75*
G02*
X52362500Y-67447000I0J200000D01*
G01*
X52362500Y-66897000D01*
G75*
G02*
X52562500Y-66697000I200000J0D01*
G01*
X52962500Y-66697000D01*
G75*
G02*
X53162500Y-66897000I0J-200000D01*
G01*
G37*
G36*
G01*
X54812500Y-66897000D02*
X54812500Y-67447000D01*
G75*
G02*
X54612500Y-67647000I-200000J0D01*
G01*
X54212500Y-67647000D01*
G75*
G02*
X54012500Y-67447000I0J200000D01*
G01*
X54012500Y-66897000D01*
G75*
G02*
X54212500Y-66697000I200000J0D01*
G01*
X54612500Y-66697000D01*
G75*
G02*
X54812500Y-66897000I0J-200000D01*
G01*
G37*
D15*
X39885000Y-29465000D03*
D16*
X43285000Y-38615000D03*
X41585000Y-38615000D03*
X39885000Y-38615000D03*
X38185000Y-38615000D03*
X36485000Y-38615000D03*
D17*
X62030000Y-46725000D03*
X52500000Y-54345000D03*
X62030000Y-49265000D03*
X52500000Y-51805000D03*
X62030000Y-51805000D03*
X52500000Y-49265000D03*
X62030000Y-54345000D03*
X52500000Y-46725000D03*
D18*
X43295000Y-66330000D03*
X45295000Y-65380000D03*
X45295000Y-67280000D03*
D17*
X47113835Y-46759251D03*
X37583835Y-54379251D03*
X47113835Y-49299251D03*
X37583835Y-51839251D03*
X47113835Y-51839251D03*
X37583835Y-49299251D03*
X47113835Y-54379251D03*
X37583835Y-46759251D03*
G36*
G01*
X49425000Y-65425000D02*
X49425000Y-65625000D01*
G75*
G02*
X49325000Y-65725000I-100000J0D01*
G01*
X48050000Y-65725000D01*
G75*
G02*
X47950000Y-65625000I0J100000D01*
G01*
X47950000Y-65425000D01*
G75*
G02*
X48050000Y-65325000I100000J0D01*
G01*
X49325000Y-65325000D01*
G75*
G02*
X49425000Y-65425000I0J-100000D01*
G01*
G37*
G36*
G01*
X49425000Y-64775000D02*
X49425000Y-64975000D01*
G75*
G02*
X49325000Y-65075000I-100000J0D01*
G01*
X48050000Y-65075000D01*
G75*
G02*
X47950000Y-64975000I0J100000D01*
G01*
X47950000Y-64775000D01*
G75*
G02*
X48050000Y-64675000I100000J0D01*
G01*
X49325000Y-64675000D01*
G75*
G02*
X49425000Y-64775000I0J-100000D01*
G01*
G37*
G36*
G01*
X49425000Y-64125000D02*
X49425000Y-64325000D01*
G75*
G02*
X49325000Y-64425000I-100000J0D01*
G01*
X48050000Y-64425000D01*
G75*
G02*
X47950000Y-64325000I0J100000D01*
G01*
X47950000Y-64125000D01*
G75*
G02*
X48050000Y-64025000I100000J0D01*
G01*
X49325000Y-64025000D01*
G75*
G02*
X49425000Y-64125000I0J-100000D01*
G01*
G37*
G36*
G01*
X49425000Y-63475000D02*
X49425000Y-63675000D01*
G75*
G02*
X49325000Y-63775000I-100000J0D01*
G01*
X48050000Y-63775000D01*
G75*
G02*
X47950000Y-63675000I0J100000D01*
G01*
X47950000Y-63475000D01*
G75*
G02*
X48050000Y-63375000I100000J0D01*
G01*
X49325000Y-63375000D01*
G75*
G02*
X49425000Y-63475000I0J-100000D01*
G01*
G37*
G36*
G01*
X49425000Y-62825000D02*
X49425000Y-63025000D01*
G75*
G02*
X49325000Y-63125000I-100000J0D01*
G01*
X48050000Y-63125000D01*
G75*
G02*
X47950000Y-63025000I0J100000D01*
G01*
X47950000Y-62825000D01*
G75*
G02*
X48050000Y-62725000I100000J0D01*
G01*
X49325000Y-62725000D01*
G75*
G02*
X49425000Y-62825000I0J-100000D01*
G01*
G37*
G36*
G01*
X49425000Y-62175000D02*
X49425000Y-62375000D01*
G75*
G02*
X49325000Y-62475000I-100000J0D01*
G01*
X48050000Y-62475000D01*
G75*
G02*
X47950000Y-62375000I0J100000D01*
G01*
X47950000Y-62175000D01*
G75*
G02*
X48050000Y-62075000I100000J0D01*
G01*
X49325000Y-62075000D01*
G75*
G02*
X49425000Y-62175000I0J-100000D01*
G01*
G37*
G36*
G01*
X49425000Y-61525000D02*
X49425000Y-61725000D01*
G75*
G02*
X49325000Y-61825000I-100000J0D01*
G01*
X48050000Y-61825000D01*
G75*
G02*
X47950000Y-61725000I0J100000D01*
G01*
X47950000Y-61525000D01*
G75*
G02*
X48050000Y-61425000I100000J0D01*
G01*
X49325000Y-61425000D01*
G75*
G02*
X49425000Y-61525000I0J-100000D01*
G01*
G37*
G36*
G01*
X49425000Y-60875000D02*
X49425000Y-61075000D01*
G75*
G02*
X49325000Y-61175000I-100000J0D01*
G01*
X48050000Y-61175000D01*
G75*
G02*
X47950000Y-61075000I0J100000D01*
G01*
X47950000Y-60875000D01*
G75*
G02*
X48050000Y-60775000I100000J0D01*
G01*
X49325000Y-60775000D01*
G75*
G02*
X49425000Y-60875000I0J-100000D01*
G01*
G37*
G36*
G01*
X49425000Y-60225000D02*
X49425000Y-60425000D01*
G75*
G02*
X49325000Y-60525000I-100000J0D01*
G01*
X48050000Y-60525000D01*
G75*
G02*
X47950000Y-60425000I0J100000D01*
G01*
X47950000Y-60225000D01*
G75*
G02*
X48050000Y-60125000I100000J0D01*
G01*
X49325000Y-60125000D01*
G75*
G02*
X49425000Y-60225000I0J-100000D01*
G01*
G37*
G36*
G01*
X49425000Y-59575000D02*
X49425000Y-59775000D01*
G75*
G02*
X49325000Y-59875000I-100000J0D01*
G01*
X48050000Y-59875000D01*
G75*
G02*
X47950000Y-59775000I0J100000D01*
G01*
X47950000Y-59575000D01*
G75*
G02*
X48050000Y-59475000I100000J0D01*
G01*
X49325000Y-59475000D01*
G75*
G02*
X49425000Y-59575000I0J-100000D01*
G01*
G37*
G36*
G01*
X55150000Y-59575000D02*
X55150000Y-59775000D01*
G75*
G02*
X55050000Y-59875000I-100000J0D01*
G01*
X53775000Y-59875000D01*
G75*
G02*
X53675000Y-59775000I0J100000D01*
G01*
X53675000Y-59575000D01*
G75*
G02*
X53775000Y-59475000I100000J0D01*
G01*
X55050000Y-59475000D01*
G75*
G02*
X55150000Y-59575000I0J-100000D01*
G01*
G37*
G36*
G01*
X55150000Y-60225000D02*
X55150000Y-60425000D01*
G75*
G02*
X55050000Y-60525000I-100000J0D01*
G01*
X53775000Y-60525000D01*
G75*
G02*
X53675000Y-60425000I0J100000D01*
G01*
X53675000Y-60225000D01*
G75*
G02*
X53775000Y-60125000I100000J0D01*
G01*
X55050000Y-60125000D01*
G75*
G02*
X55150000Y-60225000I0J-100000D01*
G01*
G37*
G36*
G01*
X55150000Y-60875000D02*
X55150000Y-61075000D01*
G75*
G02*
X55050000Y-61175000I-100000J0D01*
G01*
X53775000Y-61175000D01*
G75*
G02*
X53675000Y-61075000I0J100000D01*
G01*
X53675000Y-60875000D01*
G75*
G02*
X53775000Y-60775000I100000J0D01*
G01*
X55050000Y-60775000D01*
G75*
G02*
X55150000Y-60875000I0J-100000D01*
G01*
G37*
G36*
G01*
X55150000Y-61525000D02*
X55150000Y-61725000D01*
G75*
G02*
X55050000Y-61825000I-100000J0D01*
G01*
X53775000Y-61825000D01*
G75*
G02*
X53675000Y-61725000I0J100000D01*
G01*
X53675000Y-61525000D01*
G75*
G02*
X53775000Y-61425000I100000J0D01*
G01*
X55050000Y-61425000D01*
G75*
G02*
X55150000Y-61525000I0J-100000D01*
G01*
G37*
G36*
G01*
X55150000Y-62175000D02*
X55150000Y-62375000D01*
G75*
G02*
X55050000Y-62475000I-100000J0D01*
G01*
X53775000Y-62475000D01*
G75*
G02*
X53675000Y-62375000I0J100000D01*
G01*
X53675000Y-62175000D01*
G75*
G02*
X53775000Y-62075000I100000J0D01*
G01*
X55050000Y-62075000D01*
G75*
G02*
X55150000Y-62175000I0J-100000D01*
G01*
G37*
G36*
G01*
X55150000Y-62825000D02*
X55150000Y-63025000D01*
G75*
G02*
X55050000Y-63125000I-100000J0D01*
G01*
X53775000Y-63125000D01*
G75*
G02*
X53675000Y-63025000I0J100000D01*
G01*
X53675000Y-62825000D01*
G75*
G02*
X53775000Y-62725000I100000J0D01*
G01*
X55050000Y-62725000D01*
G75*
G02*
X55150000Y-62825000I0J-100000D01*
G01*
G37*
G36*
G01*
X55150000Y-63475000D02*
X55150000Y-63675000D01*
G75*
G02*
X55050000Y-63775000I-100000J0D01*
G01*
X53775000Y-63775000D01*
G75*
G02*
X53675000Y-63675000I0J100000D01*
G01*
X53675000Y-63475000D01*
G75*
G02*
X53775000Y-63375000I100000J0D01*
G01*
X55050000Y-63375000D01*
G75*
G02*
X55150000Y-63475000I0J-100000D01*
G01*
G37*
G36*
G01*
X55150000Y-64125000D02*
X55150000Y-64325000D01*
G75*
G02*
X55050000Y-64425000I-100000J0D01*
G01*
X53775000Y-64425000D01*
G75*
G02*
X53675000Y-64325000I0J100000D01*
G01*
X53675000Y-64125000D01*
G75*
G02*
X53775000Y-64025000I100000J0D01*
G01*
X55050000Y-64025000D01*
G75*
G02*
X55150000Y-64125000I0J-100000D01*
G01*
G37*
G36*
G01*
X55150000Y-64775000D02*
X55150000Y-64975000D01*
G75*
G02*
X55050000Y-65075000I-100000J0D01*
G01*
X53775000Y-65075000D01*
G75*
G02*
X53675000Y-64975000I0J100000D01*
G01*
X53675000Y-64775000D01*
G75*
G02*
X53775000Y-64675000I100000J0D01*
G01*
X55050000Y-64675000D01*
G75*
G02*
X55150000Y-64775000I0J-100000D01*
G01*
G37*
G36*
G01*
X55150000Y-65425000D02*
X55150000Y-65625000D01*
G75*
G02*
X55050000Y-65725000I-100000J0D01*
G01*
X53775000Y-65725000D01*
G75*
G02*
X53675000Y-65625000I0J100000D01*
G01*
X53675000Y-65425000D01*
G75*
G02*
X53775000Y-65325000I100000J0D01*
G01*
X55050000Y-65325000D01*
G75*
G02*
X55150000Y-65425000I0J-100000D01*
G01*
G37*
D19*
X46046000Y-62854000D03*
X46046000Y-61904000D03*
X46046000Y-63804000D03*
X43846000Y-63804000D03*
X43846000Y-62854000D03*
X43846000Y-61904000D03*
G36*
G01*
X61630000Y-44841000D02*
X61630000Y-44291000D01*
G75*
G02*
X61830000Y-44091000I200000J0D01*
G01*
X62230000Y-44091000D01*
G75*
G02*
X62430000Y-44291000I0J-200000D01*
G01*
X62430000Y-44841000D01*
G75*
G02*
X62230000Y-45041000I-200000J0D01*
G01*
X61830000Y-45041000D01*
G75*
G02*
X61630000Y-44841000I0J200000D01*
G01*
G37*
G36*
G01*
X59980000Y-44841000D02*
X59980000Y-44291000D01*
G75*
G02*
X60180000Y-44091000I200000J0D01*
G01*
X60580000Y-44091000D01*
G75*
G02*
X60780000Y-44291000I0J-200000D01*
G01*
X60780000Y-44841000D01*
G75*
G02*
X60580000Y-45041000I-200000J0D01*
G01*
X60180000Y-45041000D01*
G75*
G02*
X59980000Y-44841000I0J200000D01*
G01*
G37*
G36*
G01*
X62197000Y-35085000D02*
X62747000Y-35085000D01*
G75*
G02*
X62947000Y-35285000I0J-200000D01*
G01*
X62947000Y-35685000D01*
G75*
G02*
X62747000Y-35885000I-200000J0D01*
G01*
X62197000Y-35885000D01*
G75*
G02*
X61997000Y-35685000I0J200000D01*
G01*
X61997000Y-35285000D01*
G75*
G02*
X62197000Y-35085000I200000J0D01*
G01*
G37*
G36*
G01*
X62197000Y-33435000D02*
X62747000Y-33435000D01*
G75*
G02*
X62947000Y-33635000I0J-200000D01*
G01*
X62947000Y-34035000D01*
G75*
G02*
X62747000Y-34235000I-200000J0D01*
G01*
X62197000Y-34235000D01*
G75*
G02*
X61997000Y-34035000I0J200000D01*
G01*
X61997000Y-33635000D01*
G75*
G02*
X62197000Y-33435000I200000J0D01*
G01*
G37*
G36*
G01*
X50005000Y-47975000D02*
X50555000Y-47975000D01*
G75*
G02*
X50755000Y-48175000I0J-200000D01*
G01*
X50755000Y-48575000D01*
G75*
G02*
X50555000Y-48775000I-200000J0D01*
G01*
X50005000Y-48775000D01*
G75*
G02*
X49805000Y-48575000I0J200000D01*
G01*
X49805000Y-48175000D01*
G75*
G02*
X50005000Y-47975000I200000J0D01*
G01*
G37*
G36*
G01*
X50005000Y-46325000D02*
X50555000Y-46325000D01*
G75*
G02*
X50755000Y-46525000I0J-200000D01*
G01*
X50755000Y-46925000D01*
G75*
G02*
X50555000Y-47125000I-200000J0D01*
G01*
X50005000Y-47125000D01*
G75*
G02*
X49805000Y-46925000I0J200000D01*
G01*
X49805000Y-46525000D01*
G75*
G02*
X50005000Y-46325000I200000J0D01*
G01*
G37*
G36*
G01*
X40160000Y-42045000D02*
X39610000Y-42045000D01*
G75*
G02*
X39410000Y-41845000I0J200000D01*
G01*
X39410000Y-41445000D01*
G75*
G02*
X39610000Y-41245000I200000J0D01*
G01*
X40160000Y-41245000D01*
G75*
G02*
X40360000Y-41445000I0J-200000D01*
G01*
X40360000Y-41845000D01*
G75*
G02*
X40160000Y-42045000I-200000J0D01*
G01*
G37*
G36*
G01*
X40160000Y-43695000D02*
X39610000Y-43695000D01*
G75*
G02*
X39410000Y-43495000I0J200000D01*
G01*
X39410000Y-43095000D01*
G75*
G02*
X39610000Y-42895000I200000J0D01*
G01*
X40160000Y-42895000D01*
G75*
G02*
X40360000Y-43095000I0J-200000D01*
G01*
X40360000Y-43495000D01*
G75*
G02*
X40160000Y-43695000I-200000J0D01*
G01*
G37*
G36*
G01*
X36210000Y-42895000D02*
X36760000Y-42895000D01*
G75*
G02*
X36960000Y-43095000I0J-200000D01*
G01*
X36960000Y-43495000D01*
G75*
G02*
X36760000Y-43695000I-200000J0D01*
G01*
X36210000Y-43695000D01*
G75*
G02*
X36010000Y-43495000I0J200000D01*
G01*
X36010000Y-43095000D01*
G75*
G02*
X36210000Y-42895000I200000J0D01*
G01*
G37*
G36*
G01*
X36210000Y-41245000D02*
X36760000Y-41245000D01*
G75*
G02*
X36960000Y-41445000I0J-200000D01*
G01*
X36960000Y-41845000D01*
G75*
G02*
X36760000Y-42045000I-200000J0D01*
G01*
X36210000Y-42045000D01*
G75*
G02*
X36010000Y-41845000I0J200000D01*
G01*
X36010000Y-41445000D01*
G75*
G02*
X36210000Y-41245000I200000J0D01*
G01*
G37*
G36*
G01*
X35950000Y-50589251D02*
X35400000Y-50589251D01*
G75*
G02*
X35200000Y-50389251I0J200000D01*
G01*
X35200000Y-49989251D01*
G75*
G02*
X35400000Y-49789251I200000J0D01*
G01*
X35950000Y-49789251D01*
G75*
G02*
X36150000Y-49989251I0J-200000D01*
G01*
X36150000Y-50389251D01*
G75*
G02*
X35950000Y-50589251I-200000J0D01*
G01*
G37*
G36*
G01*
X35950000Y-52239251D02*
X35400000Y-52239251D01*
G75*
G02*
X35200000Y-52039251I0J200000D01*
G01*
X35200000Y-51639251D01*
G75*
G02*
X35400000Y-51439251I200000J0D01*
G01*
X35950000Y-51439251D01*
G75*
G02*
X36150000Y-51639251I0J-200000D01*
G01*
X36150000Y-52039251D01*
G75*
G02*
X35950000Y-52239251I-200000J0D01*
G01*
G37*
G36*
G01*
X24901000Y-56778000D02*
X24351000Y-56778000D01*
G75*
G02*
X24151000Y-56578000I0J200000D01*
G01*
X24151000Y-56178000D01*
G75*
G02*
X24351000Y-55978000I200000J0D01*
G01*
X24901000Y-55978000D01*
G75*
G02*
X25101000Y-56178000I0J-200000D01*
G01*
X25101000Y-56578000D01*
G75*
G02*
X24901000Y-56778000I-200000J0D01*
G01*
G37*
G36*
G01*
X24901000Y-58428000D02*
X24351000Y-58428000D01*
G75*
G02*
X24151000Y-58228000I0J200000D01*
G01*
X24151000Y-57828000D01*
G75*
G02*
X24351000Y-57628000I200000J0D01*
G01*
X24901000Y-57628000D01*
G75*
G02*
X25101000Y-57828000I0J-200000D01*
G01*
X25101000Y-58228000D01*
G75*
G02*
X24901000Y-58428000I-200000J0D01*
G01*
G37*
G36*
G01*
X36330000Y-44545000D02*
X36330000Y-45095000D01*
G75*
G02*
X36130000Y-45295000I-200000J0D01*
G01*
X35730000Y-45295000D01*
G75*
G02*
X35530000Y-45095000I0J200000D01*
G01*
X35530000Y-44545000D01*
G75*
G02*
X35730000Y-44345000I200000J0D01*
G01*
X36130000Y-44345000D01*
G75*
G02*
X36330000Y-44545000I0J-200000D01*
G01*
G37*
G36*
G01*
X37980000Y-44545000D02*
X37980000Y-45095000D01*
G75*
G02*
X37780000Y-45295000I-200000J0D01*
G01*
X37380000Y-45295000D01*
G75*
G02*
X37180000Y-45095000I0J200000D01*
G01*
X37180000Y-44545000D01*
G75*
G02*
X37380000Y-44345000I200000J0D01*
G01*
X37780000Y-44345000D01*
G75*
G02*
X37980000Y-44545000I0J-200000D01*
G01*
G37*
G36*
G01*
X24901000Y-59444000D02*
X24351000Y-59444000D01*
G75*
G02*
X24151000Y-59244000I0J200000D01*
G01*
X24151000Y-58844000D01*
G75*
G02*
X24351000Y-58644000I200000J0D01*
G01*
X24901000Y-58644000D01*
G75*
G02*
X25101000Y-58844000I0J-200000D01*
G01*
X25101000Y-59244000D01*
G75*
G02*
X24901000Y-59444000I-200000J0D01*
G01*
G37*
G36*
G01*
X24901000Y-61094000D02*
X24351000Y-61094000D01*
G75*
G02*
X24151000Y-60894000I0J200000D01*
G01*
X24151000Y-60494000D01*
G75*
G02*
X24351000Y-60294000I200000J0D01*
G01*
X24901000Y-60294000D01*
G75*
G02*
X25101000Y-60494000I0J-200000D01*
G01*
X25101000Y-60894000D01*
G75*
G02*
X24901000Y-61094000I-200000J0D01*
G01*
G37*
G36*
G01*
X57921000Y-66788874D02*
X57371000Y-66788874D01*
G75*
G02*
X57171000Y-66588874I0J200000D01*
G01*
X57171000Y-66188874D01*
G75*
G02*
X57371000Y-65988874I200000J0D01*
G01*
X57921000Y-65988874D01*
G75*
G02*
X58121000Y-66188874I0J-200000D01*
G01*
X58121000Y-66588874D01*
G75*
G02*
X57921000Y-66788874I-200000J0D01*
G01*
G37*
G36*
G01*
X57921000Y-68438874D02*
X57371000Y-68438874D01*
G75*
G02*
X57171000Y-68238874I0J200000D01*
G01*
X57171000Y-67838874D01*
G75*
G02*
X57371000Y-67638874I200000J0D01*
G01*
X57921000Y-67638874D01*
G75*
G02*
X58121000Y-67838874I0J-200000D01*
G01*
X58121000Y-68238874D01*
G75*
G02*
X57921000Y-68438874I-200000J0D01*
G01*
G37*
G36*
G01*
X60765500Y-62937000D02*
X60215500Y-62937000D01*
G75*
G02*
X60015500Y-62737000I0J200000D01*
G01*
X60015500Y-62337000D01*
G75*
G02*
X60215500Y-62137000I200000J0D01*
G01*
X60765500Y-62137000D01*
G75*
G02*
X60965500Y-62337000I0J-200000D01*
G01*
X60965500Y-62737000D01*
G75*
G02*
X60765500Y-62937000I-200000J0D01*
G01*
G37*
G36*
G01*
X60765500Y-64587000D02*
X60215500Y-64587000D01*
G75*
G02*
X60015500Y-64387000I0J200000D01*
G01*
X60015500Y-63987000D01*
G75*
G02*
X60215500Y-63787000I200000J0D01*
G01*
X60765500Y-63787000D01*
G75*
G02*
X60965500Y-63987000I0J-200000D01*
G01*
X60965500Y-64387000D01*
G75*
G02*
X60765500Y-64587000I-200000J0D01*
G01*
G37*
G36*
G01*
X60800000Y-31275000D02*
X61350000Y-31275000D01*
G75*
G02*
X61550000Y-31475000I0J-200000D01*
G01*
X61550000Y-31875000D01*
G75*
G02*
X61350000Y-32075000I-200000J0D01*
G01*
X60800000Y-32075000D01*
G75*
G02*
X60600000Y-31875000I0J200000D01*
G01*
X60600000Y-31475000D01*
G75*
G02*
X60800000Y-31275000I200000J0D01*
G01*
G37*
G36*
G01*
X60800000Y-29625000D02*
X61350000Y-29625000D01*
G75*
G02*
X61550000Y-29825000I0J-200000D01*
G01*
X61550000Y-30225000D01*
G75*
G02*
X61350000Y-30425000I-200000J0D01*
G01*
X60800000Y-30425000D01*
G75*
G02*
X60600000Y-30225000I0J200000D01*
G01*
X60600000Y-29825000D01*
G75*
G02*
X60800000Y-29625000I200000J0D01*
G01*
G37*
G36*
G01*
X57372000Y-62621000D02*
X57372000Y-62071000D01*
G75*
G02*
X57572000Y-61871000I200000J0D01*
G01*
X57972000Y-61871000D01*
G75*
G02*
X58172000Y-62071000I0J-200000D01*
G01*
X58172000Y-62621000D01*
G75*
G02*
X57972000Y-62821000I-200000J0D01*
G01*
X57572000Y-62821000D01*
G75*
G02*
X57372000Y-62621000I0J200000D01*
G01*
G37*
G36*
G01*
X55722000Y-62621000D02*
X55722000Y-62071000D01*
G75*
G02*
X55922000Y-61871000I200000J0D01*
G01*
X56322000Y-61871000D01*
G75*
G02*
X56522000Y-62071000I0J-200000D01*
G01*
X56522000Y-62621000D01*
G75*
G02*
X56322000Y-62821000I-200000J0D01*
G01*
X55922000Y-62821000D01*
G75*
G02*
X55722000Y-62621000I0J200000D01*
G01*
G37*
D15*
X29090000Y-49380000D03*
D20*
X31630000Y-58530000D03*
D16*
X26550000Y-58530000D03*
D21*
X50280000Y-34025000D03*
X50280000Y-42325000D03*
D22*
X59170000Y-58790000D03*
D23*
X56630000Y-58790000D03*
D24*
X26190000Y-65140000D03*
X28690000Y-65140000D03*
G36*
G01*
X32040000Y-64415000D02*
X32040000Y-65865000D01*
G75*
G02*
X31790000Y-66115000I-250000J0D01*
G01*
X30590000Y-66115000D01*
G75*
G02*
X30340000Y-65865000I0J250000D01*
G01*
X30340000Y-64415000D01*
G75*
G02*
X30590000Y-64165000I250000J0D01*
G01*
X31790000Y-64165000D01*
G75*
G02*
X32040000Y-64415000I0J-250000D01*
G01*
G37*
D25*
X48010000Y-57822000D03*
X49510000Y-57822000D03*
X51010000Y-57822000D03*
X52510000Y-57822000D03*
D24*
X52185000Y-29580000D03*
X54685000Y-29580000D03*
G36*
G01*
X58035000Y-28855000D02*
X58035000Y-30305000D01*
G75*
G02*
X57785000Y-30555000I-250000J0D01*
G01*
X56585000Y-30555000D01*
G75*
G02*
X56335000Y-30305000I0J250000D01*
G01*
X56335000Y-28855000D01*
G75*
G02*
X56585000Y-28605000I250000J0D01*
G01*
X57785000Y-28605000D01*
G75*
G02*
X58035000Y-28855000I0J-250000D01*
G01*
G37*
X31150000Y-27675000D03*
X28650000Y-27675000D03*
G36*
G01*
X25300000Y-28400000D02*
X25300000Y-26950000D01*
G75*
G02*
X25550000Y-26700000I250000J0D01*
G01*
X26750000Y-26700000D01*
G75*
G02*
X27000000Y-26950000I0J-250000D01*
G01*
X27000000Y-28400000D01*
G75*
G02*
X26750000Y-28650000I-250000J0D01*
G01*
X25550000Y-28650000D01*
G75*
G02*
X25300000Y-28400000I0J250000D01*
G01*
G37*
D26*
X39485000Y-58830000D03*
X39485000Y-61330000D03*
X39485000Y-63830000D03*
G36*
G01*
X40210000Y-67180000D02*
X38760000Y-67180000D01*
G75*
G02*
X38510000Y-66930000I0J250000D01*
G01*
X38510000Y-65730000D01*
G75*
G02*
X38760000Y-65480000I250000J0D01*
G01*
X40210000Y-65480000D01*
G75*
G02*
X40460000Y-65730000I0J-250000D01*
G01*
X40460000Y-66930000D01*
G75*
G02*
X40210000Y-67180000I-250000J0D01*
G01*
G37*
D27*
X61710000Y-23770000D03*
X61710000Y-27770000D03*
X47740000Y-26405000D03*
X47740000Y-30405000D03*
G36*
G01*
X56334500Y-64837500D02*
X55909500Y-64837500D01*
G75*
G02*
X55697000Y-64625000I0J212500D01*
G01*
X55697000Y-63825000D01*
G75*
G02*
X55909500Y-63612500I212500J0D01*
G01*
X56334500Y-63612500D01*
G75*
G02*
X56547000Y-63825000I0J-212500D01*
G01*
X56547000Y-64625000D01*
G75*
G02*
X56334500Y-64837500I-212500J0D01*
G01*
G37*
G36*
G01*
X56334500Y-66462500D02*
X55909500Y-66462500D01*
G75*
G02*
X55697000Y-66250000I0J212500D01*
G01*
X55697000Y-65450000D01*
G75*
G02*
X55909500Y-65237500I212500J0D01*
G01*
X56334500Y-65237500D01*
G75*
G02*
X56547000Y-65450000I0J-212500D01*
G01*
X56547000Y-66250000D01*
G75*
G02*
X56334500Y-66462500I-212500J0D01*
G01*
G37*
G36*
G01*
X60862500Y-34225000D02*
X61287500Y-34225000D01*
G75*
G02*
X61500000Y-34437500I0J-212500D01*
G01*
X61500000Y-35237500D01*
G75*
G02*
X61287500Y-35450000I-212500J0D01*
G01*
X60862500Y-35450000D01*
G75*
G02*
X60650000Y-35237500I0J212500D01*
G01*
X60650000Y-34437500D01*
G75*
G02*
X60862500Y-34225000I212500J0D01*
G01*
G37*
G36*
G01*
X60862500Y-32600000D02*
X61287500Y-32600000D01*
G75*
G02*
X61500000Y-32812500I0J-212500D01*
G01*
X61500000Y-33612500D01*
G75*
G02*
X61287500Y-33825000I-212500J0D01*
G01*
X60862500Y-33825000D01*
G75*
G02*
X60650000Y-33612500I0J212500D01*
G01*
X60650000Y-32812500D01*
G75*
G02*
X60862500Y-32600000I212500J0D01*
G01*
G37*
G36*
G01*
X59478000Y-61117500D02*
X59478000Y-61542500D01*
G75*
G02*
X59265500Y-61755000I-212500J0D01*
G01*
X58465500Y-61755000D01*
G75*
G02*
X58253000Y-61542500I0J212500D01*
G01*
X58253000Y-61117500D01*
G75*
G02*
X58465500Y-60905000I212500J0D01*
G01*
X59265500Y-60905000D01*
G75*
G02*
X59478000Y-61117500I0J-212500D01*
G01*
G37*
G36*
G01*
X61103000Y-61117500D02*
X61103000Y-61542500D01*
G75*
G02*
X60890500Y-61755000I-212500J0D01*
G01*
X60090500Y-61755000D01*
G75*
G02*
X59878000Y-61542500I0J212500D01*
G01*
X59878000Y-61117500D01*
G75*
G02*
X60090500Y-60905000I212500J0D01*
G01*
X60890500Y-60905000D01*
G75*
G02*
X61103000Y-61117500I0J-212500D01*
G01*
G37*
G36*
G01*
X48760000Y-52939251D02*
X49260000Y-52939251D01*
G75*
G02*
X49485000Y-53164251I0J-225000D01*
G01*
X49485000Y-53614251D01*
G75*
G02*
X49260000Y-53839251I-225000J0D01*
G01*
X48760000Y-53839251D01*
G75*
G02*
X48535000Y-53614251I0J225000D01*
G01*
X48535000Y-53164251D01*
G75*
G02*
X48760000Y-52939251I225000J0D01*
G01*
G37*
G36*
G01*
X48760000Y-51389251D02*
X49260000Y-51389251D01*
G75*
G02*
X49485000Y-51614251I0J-225000D01*
G01*
X49485000Y-52064251D01*
G75*
G02*
X49260000Y-52289251I-225000J0D01*
G01*
X48760000Y-52289251D01*
G75*
G02*
X48535000Y-52064251I0J225000D01*
G01*
X48535000Y-51614251D01*
G75*
G02*
X48760000Y-51389251I225000J0D01*
G01*
G37*
G36*
G01*
X45525000Y-60056000D02*
X45525000Y-59556000D01*
G75*
G02*
X45750000Y-59331000I225000J0D01*
G01*
X46200000Y-59331000D01*
G75*
G02*
X46425000Y-59556000I0J-225000D01*
G01*
X46425000Y-60056000D01*
G75*
G02*
X46200000Y-60281000I-225000J0D01*
G01*
X45750000Y-60281000D01*
G75*
G02*
X45525000Y-60056000I0J225000D01*
G01*
G37*
G36*
G01*
X43975000Y-60056000D02*
X43975000Y-59556000D01*
G75*
G02*
X44200000Y-59331000I225000J0D01*
G01*
X44650000Y-59331000D01*
G75*
G02*
X44875000Y-59556000I0J-225000D01*
G01*
X44875000Y-60056000D01*
G75*
G02*
X44650000Y-60281000I-225000J0D01*
G01*
X44200000Y-60281000D01*
G75*
G02*
X43975000Y-60056000I0J225000D01*
G01*
G37*
G36*
G01*
X57515000Y-33840001D02*
X57015000Y-33840001D01*
G75*
G02*
X56790000Y-33615001I0J225000D01*
G01*
X56790000Y-33165001D01*
G75*
G02*
X57015000Y-32940001I225000J0D01*
G01*
X57515000Y-32940001D01*
G75*
G02*
X57740000Y-33165001I0J-225000D01*
G01*
X57740000Y-33615001D01*
G75*
G02*
X57515000Y-33840001I-225000J0D01*
G01*
G37*
G36*
G01*
X57515000Y-35390001D02*
X57015000Y-35390001D01*
G75*
G02*
X56790000Y-35165001I0J225000D01*
G01*
X56790000Y-34715001D01*
G75*
G02*
X57015000Y-34490001I225000J0D01*
G01*
X57515000Y-34490001D01*
G75*
G02*
X57740000Y-34715001I0J-225000D01*
G01*
X57740000Y-35165001D01*
G75*
G02*
X57515000Y-35390001I-225000J0D01*
G01*
G37*
G36*
G01*
X59720000Y-38675000D02*
X58620000Y-38675000D01*
G75*
G02*
X58370000Y-38425000I0J250000D01*
G01*
X58370000Y-35425000D01*
G75*
G02*
X58620000Y-35175000I250000J0D01*
G01*
X59720000Y-35175000D01*
G75*
G02*
X59970000Y-35425000I0J-250000D01*
G01*
X59970000Y-38425000D01*
G75*
G02*
X59720000Y-38675000I-250000J0D01*
G01*
G37*
G36*
G01*
X59720000Y-44075000D02*
X58620000Y-44075000D01*
G75*
G02*
X58370000Y-43825000I0J250000D01*
G01*
X58370000Y-40825000D01*
G75*
G02*
X58620000Y-40575000I250000J0D01*
G01*
X59720000Y-40575000D01*
G75*
G02*
X59970000Y-40825000I0J-250000D01*
G01*
X59970000Y-43825000D01*
G75*
G02*
X59720000Y-44075000I-250000J0D01*
G01*
G37*
G36*
G01*
X57396000Y-64703000D02*
X57896000Y-64703000D01*
G75*
G02*
X58121000Y-64928000I0J-225000D01*
G01*
X58121000Y-65378000D01*
G75*
G02*
X57896000Y-65603000I-225000J0D01*
G01*
X57396000Y-65603000D01*
G75*
G02*
X57171000Y-65378000I0J225000D01*
G01*
X57171000Y-64928000D01*
G75*
G02*
X57396000Y-64703000I225000J0D01*
G01*
G37*
G36*
G01*
X57396000Y-63153000D02*
X57896000Y-63153000D01*
G75*
G02*
X58121000Y-63378000I0J-225000D01*
G01*
X58121000Y-63828000D01*
G75*
G02*
X57896000Y-64053000I-225000J0D01*
G01*
X57396000Y-64053000D01*
G75*
G02*
X57171000Y-63828000I0J225000D01*
G01*
X57171000Y-63378000D01*
G75*
G02*
X57396000Y-63153000I225000J0D01*
G01*
G37*
G36*
G01*
X29750000Y-24750000D02*
X29750000Y-24250000D01*
G75*
G02*
X29975000Y-24025000I225000J0D01*
G01*
X30425000Y-24025000D01*
G75*
G02*
X30650000Y-24250000I0J-225000D01*
G01*
X30650000Y-24750000D01*
G75*
G02*
X30425000Y-24975000I-225000J0D01*
G01*
X29975000Y-24975000D01*
G75*
G02*
X29750000Y-24750000I0J225000D01*
G01*
G37*
G36*
G01*
X28200000Y-24750000D02*
X28200000Y-24250000D01*
G75*
G02*
X28425000Y-24025000I225000J0D01*
G01*
X28875000Y-24025000D01*
G75*
G02*
X29100000Y-24250000I0J-225000D01*
G01*
X29100000Y-24750000D01*
G75*
G02*
X28875000Y-24975000I-225000J0D01*
G01*
X28425000Y-24975000D01*
G75*
G02*
X28200000Y-24750000I0J225000D01*
G01*
G37*
M02*
