M48
METRIC
T1C0.300
T2C0.762
T3C0.950
T4C1.500
T5C2.200
%
G90
G05
T1
X24.892Y36.966
X39.37Y31.623
X64.77Y21.59
X70.231Y26.924
X70.231Y32.258
T2
X54.356Y36.798
X54.356Y38.298
X60.254Y24.082
X61.754Y24.082
X63.254Y24.082
X64.754Y24.082
X45.0Y25.0
T3
X27.178Y39.624
X29.678Y39.624
X32.178Y39.624
X34.678Y39.624
X37.178Y39.624
T4
X42.46Y25.0
X47.54Y25.0
T5
X69.2Y40.7
X19.8Y40.7
X69.2Y18.3
X19.8Y18.3
T0
M30
