  0
SECTION
  2
HEADER
  9
$ANGBASE
  50
0.0
  9
$ANGDIR
  70
1
  9
$MEASUREMENT
  70
1
  0
ENDSEC
  0
SECTION
  2
TABLES
  0
TABLE
  2
LTYPE
  70
4
  0
LTYPE
  5
40F
  2
CONTINUOUS
  70
0
  3
Solid line
  72
65
  73
0
  40
0.0
  0
LTYPE
  5
410
  2
DASHDOT
 70
0
  3
Dash Dot ____ _ ____ _
 72
65
 73
4
 40
2.0
 49
1.25
 49
-0.25
 49
0.25
 49
-0.25
  0
LTYPE
  5
411
  2
DASHED
 70
0
  3
Dashed __ __ __ __ __
 72
65
 73
2
 40
0.75
 49
0.5
 49
-0.25
  0
LTYPE
  5
43B
  2
DOTTED
 70
0
  3
Dotted .  .  .  .
 72
65
 73
2
 40
0.2
 49
0.0
 49
-0.2
  0
ENDTAB
  0
TABLE
  2
STYLE
  70
4
  0
STYLE
  2
KICAD
  70
0
  40
0
  41
1
  42
1
  50
0
  71
0
  3
isocp.shx
  0
STYLE
  2
KICADB
  70
0
  40
0
  41
1
  42
1
  50
0
  71
0
  3
isocp.shx
  0
STYLE
  2
KICADI
  70
0
  40
0
  41
1
  42
1
  50
15
  71
0
  3
isocp.shx
  0
STYLE
  2
KICADBI
  70
0
  40
0
  41
1
  42
1
  50
15
  71
0
  3
isocp.shx
  0
ENDTAB
  0
TABLE
  2
LAYER
  70
1
  0
LAYER
  2
BLACK
  70
0
  62
7
  6
CONTINUOUS
  0
ENDTAB
  0
ENDSEC
  0
SECTION
  2
ENTITIES
0
LINE
8
BLACK
6
CONTINUOUS
10
72.0012
20
-15.475
11
72.0049
21
-15.4754
0
LINE
8
BLACK
6
CONTINUOUS
10
72.0049
20
-15.4754
11
72.0096
21
-15.4768
0
LINE
8
BLACK
6
CONTINUOUS
10
72.0096
20
-15.4768
11
72.014
21
-15.4791
0
LINE
8
BLACK
6
CONTINUOUS
10
72.014
20
-15.4791
11
72.0178
21
-15.4822
0
LINE
8
BLACK
6
CONTINUOUS
10
72.0178
20
-15.4822
11
72.0209
21
-15.486
0
LINE
8
BLACK
6
CONTINUOUS
10
72.0209
20
-15.486
11
72.0232
21
-15.4904
0
LINE
8
BLACK
6
CONTINUOUS
10
72.0232
20
-15.4904
11
72.0246
21
-15.4951
0
LINE
8
BLACK
6
CONTINUOUS
10
72.0246
20
-15.4951
11
72.0251
21
-15.5
0
LINE
8
BLACK
6
CONTINUOUS
10
72.0251
20
-15.5
11
72.025
21
-15.5012
0
LINE
8
BLACK
6
CONTINUOUS
10
72.025
20
-15.5012
11
72.025
21
-43.4988
0
LINE
8
BLACK
6
CONTINUOUS
10
72.025
20
-43.4988
11
72.0251
21
-43.5
0
LINE
8
BLACK
6
CONTINUOUS
10
72.0251
20
-43.5
11
72.0246
21
-43.5049
0
LINE
8
BLACK
6
CONTINUOUS
10
72.0246
20
-43.5049
11
72.0232
21
-43.5096
0
LINE
8
BLACK
6
CONTINUOUS
10
72.0232
20
-43.5096
11
72.0209
21
-43.514
0
LINE
8
BLACK
6
CONTINUOUS
10
72.0209
20
-43.514
11
72.0178
21
-43.5178
0
LINE
8
BLACK
6
CONTINUOUS
10
72.0178
20
-43.5178
11
72.014
21
-43.5209
0
LINE
8
BLACK
6
CONTINUOUS
10
72.014
20
-43.5209
11
72.0096
21
-43.5232
0
LINE
8
BLACK
6
CONTINUOUS
10
72.0096
20
-43.5232
11
72.0049
21
-43.5246
0
LINE
8
BLACK
6
CONTINUOUS
10
72.0049
20
-43.5246
11
72.0012
21
-43.525
0
LINE
8
BLACK
6
CONTINUOUS
10
72.0012
20
-43.525
11
72.0012
21
-43.525
0
LINE
8
BLACK
6
CONTINUOUS
10
72.0012
20
-43.525
11
72
21
-43.5251
0
LINE
8
BLACK
6
CONTINUOUS
10
72
20
-43.5251
11
71.9988
21
-43.525
0
LINE
8
BLACK
6
CONTINUOUS
10
71.9988
20
-43.525
11
17.0012
21
-43.525
0
LINE
8
BLACK
6
CONTINUOUS
10
17.0012
20
-43.525
11
17
21
-43.5251
0
LINE
8
BLACK
6
CONTINUOUS
10
17
20
-43.5251
11
16.9988
21
-43.525
0
LINE
8
BLACK
6
CONTINUOUS
10
16.9988
20
-43.525
11
16.9988
21
-43.525
0
LINE
8
BLACK
6
CONTINUOUS
10
16.9988
20
-43.525
11
16.9951
21
-43.5246
0
LINE
8
BLACK
6
CONTINUOUS
10
16.9951
20
-43.5246
11
16.9904
21
-43.5232
0
LINE
8
BLACK
6
CONTINUOUS
10
16.9904
20
-43.5232
11
16.986
21
-43.5209
0
LINE
8
BLACK
6
CONTINUOUS
10
16.986
20
-43.5209
11
16.9822
21
-43.5178
0
LINE
8
BLACK
6
CONTINUOUS
10
16.9822
20
-43.5178
11
16.9791
21
-43.514
0
LINE
8
BLACK
6
CONTINUOUS
10
16.9791
20
-43.514
11
16.9768
21
-43.5096
0
LINE
8
BLACK
6
CONTINUOUS
10
16.9768
20
-43.5096
11
16.9754
21
-43.5049
0
LINE
8
BLACK
6
CONTINUOUS
10
16.9754
20
-43.5049
11
16.9749
21
-43.5
0
LINE
8
BLACK
6
CONTINUOUS
10
16.9749
20
-43.5
11
16.975
21
-43.4988
0
LINE
8
BLACK
6
CONTINUOUS
10
16.975
20
-43.4988
11
16.975
21
-15.5012
0
LINE
8
BLACK
6
CONTINUOUS
10
16.975
20
-15.5012
11
16.9749
21
-15.5
0
LINE
8
BLACK
6
CONTINUOUS
10
16.9749
20
-15.5
11
16.9754
21
-15.4951
0
LINE
8
BLACK
6
CONTINUOUS
10
16.9754
20
-15.4951
11
16.9768
21
-15.4904
0
LINE
8
BLACK
6
CONTINUOUS
10
16.9768
20
-15.4904
11
16.9791
21
-15.486
0
LINE
8
BLACK
6
CONTINUOUS
10
16.9791
20
-15.486
11
16.9822
21
-15.4822
0
LINE
8
BLACK
6
CONTINUOUS
10
16.9822
20
-15.4822
11
16.986
21
-15.4791
0
LINE
8
BLACK
6
CONTINUOUS
10
16.986
20
-15.4791
11
16.9904
21
-15.4768
0
LINE
8
BLACK
6
CONTINUOUS
10
16.9904
20
-15.4768
11
16.9951
21
-15.4754
0
LINE
8
BLACK
6
CONTINUOUS
10
16.9951
20
-15.4754
11
16.9988
21
-15.475
0
LINE
8
BLACK
6
CONTINUOUS
10
16.9988
20
-15.475
11
17
21
-15.4749
0
LINE
8
BLACK
6
CONTINUOUS
10
17
20
-15.4749
11
17.0012
21
-15.475
0
LINE
8
BLACK
6
CONTINUOUS
10
17.0012
20
-15.475
11
71.9988
21
-15.475
0
LINE
8
BLACK
6
CONTINUOUS
10
71.9988
20
-15.475
11
72
21
-15.4749
0
LINE
8
BLACK
6
CONTINUOUS
10
72
20
-15.4749
11
72.0012
21
-15.475
0
LINE
8
BLACK
6
CONTINUOUS
10
17.025
20
-15.525
11
17.025
21
-43.475
0
LINE
8
BLACK
6
CONTINUOUS
10
17.025
20
-43.475
11
71.975
21
-43.475
0
LINE
8
BLACK
6
CONTINUOUS
10
71.975
20
-43.475
11
71.975
21
-15.525
0
LINE
8
BLACK
6
CONTINUOUS
10
71.975
20
-15.525
11
17.025
21
-15.525
  0
ENDSEC
  0
EOF
